solid CATIA STL
  facet normal  0.000000e+000  0.000000e+000  1.000000e+000
    outer loop
      vertex  0.000000e+000  4.600000e+001  1.100000e+001
      vertex  3.250000e+001  4.533013e+001  1.100000e+001
      vertex  3.000000e+001  4.600000e+001  1.100000e+001
    endloop
  endfacet
  facet normal  0.000000e+000  0.000000e+000  1.000000e+000
    outer loop
      vertex  3.500000e+001 -4.100000e+001  1.100000e+001
      vertex  3.500000e+001  4.100000e+001  1.100000e+001
      vertex  2.800000e+001  3.000000e+001  1.100000e+001
    endloop
  endfacet
  facet normal  0.000000e+000  0.000000e+000  1.000000e+000
    outer loop
      vertex  3.500000e+001 -4.100000e+001  1.100000e+001
      vertex  2.800000e+001  3.000000e+001  1.100000e+001
      vertex  2.800000e+001 -3.000000e+001  1.100000e+001
    endloop
  endfacet
  facet normal  0.000000e+000  0.000000e+000  9.999999e-001
    outer loop
      vertex  3.500000e+001 -4.100000e+001  1.100000e+001
      vertex  2.800000e+001 -3.000000e+001  1.100000e+001
      vertex  2.733013e+001 -3.250000e+001  1.100000e+001
    endloop
  endfacet
  facet normal  0.000000e+000  0.000000e+000  9.999999e-001
    outer loop
      vertex  3.500000e+001 -4.100000e+001  1.100000e+001
      vertex  2.733013e+001 -3.250000e+001  1.100000e+001
      vertex  2.550000e+001 -3.433013e+001  1.100000e+001
    endloop
  endfacet
  facet normal  0.000000e+000  0.000000e+000  9.999999e-001
    outer loop
      vertex  3.500000e+001 -4.100000e+001  1.100000e+001
      vertex  2.550000e+001 -3.433013e+001  1.100000e+001
      vertex  2.300000e+001 -3.500000e+001  1.100000e+001
    endloop
  endfacet
  facet normal  0.000000e+000  0.000000e+000  1.000000e+000
    outer loop
      vertex  3.500000e+001 -4.100000e+001  1.100000e+001
      vertex  2.300000e+001 -3.500000e+001  1.100000e+001
      vertex  0.000000e+000 -3.500000e+001  1.100000e+001
    endloop
  endfacet
  facet normal  0.000000e+000  0.000000e+000  9.999999e-001
    outer loop
      vertex  3.500000e+001  4.100000e+001  1.100000e+001
      vertex  3.433013e+001  4.350000e+001  1.100000e+001
      vertex  3.250000e+001  4.533013e+001  1.100000e+001
    endloop
  endfacet
  facet normal  0.000000e+000  0.000000e+000  1.000000e+000
    outer loop
      vertex  3.500000e+001  4.100000e+001  1.100000e+001
      vertex  3.250000e+001  4.533013e+001  1.100000e+001
      vertex  0.000000e+000  4.600000e+001  1.100000e+001
    endloop
  endfacet
  facet normal  0.000000e+000  0.000000e+000  1.000000e+000
    outer loop
      vertex  3.500000e+001  4.100000e+001  1.100000e+001
      vertex  0.000000e+000  4.600000e+001  1.100000e+001
      vertex  0.000000e+000  3.500000e+001  1.100000e+001
    endloop
  endfacet
  facet normal  0.000000e+000  0.000000e+000  1.000000e+000
    outer loop
      vertex  3.500000e+001  4.100000e+001  1.100000e+001
      vertex  0.000000e+000  3.500000e+001  1.100000e+001
      vertex  2.300000e+001  3.500000e+001  1.100000e+001
    endloop
  endfacet
  facet normal  -0.000000e+000  0.000000e+000  9.999999e-001
    outer loop
      vertex  3.500000e+001  4.100000e+001  1.100000e+001
      vertex  2.300000e+001  3.500000e+001  1.100000e+001
      vertex  2.550000e+001  3.433013e+001  1.100000e+001
    endloop
  endfacet
  facet normal  -0.000000e+000  0.000000e+000  9.999999e-001
    outer loop
      vertex  3.500000e+001  4.100000e+001  1.100000e+001
      vertex  2.550000e+001  3.433013e+001  1.100000e+001
      vertex  2.733013e+001  3.250000e+001  1.100000e+001
    endloop
  endfacet
  facet normal  -0.000000e+000  0.000000e+000  9.999999e-001
    outer loop
      vertex  3.500000e+001  4.100000e+001  1.100000e+001
      vertex  2.733013e+001  3.250000e+001  1.100000e+001
      vertex  2.800000e+001  3.000000e+001  1.100000e+001
    endloop
  endfacet
  facet normal  0.000000e+000  0.000000e+000  9.999999e-001
    outer loop
      vertex  0.000000e+000 -4.600000e+001  1.100000e+001
      vertex  3.000000e+001 -4.600000e+001  1.100000e+001
      vertex  0.000000e+000 -3.500000e+001  1.100000e+001
    endloop
  endfacet
  facet normal  0.000000e+000  0.000000e+000  9.999999e-001
    outer loop
      vertex  0.000000e+000 -3.500000e+001  1.100000e+001
      vertex  3.000000e+001 -4.600000e+001  1.100000e+001
      vertex  3.250000e+001 -4.533013e+001  1.100000e+001
    endloop
  endfacet
  facet normal  0.000000e+000  -0.000000e+000  1.000000e+000
    outer loop
      vertex  0.000000e+000 -3.500000e+001  1.100000e+001
      vertex  3.250000e+001 -4.533013e+001  1.100000e+001
      vertex  3.500000e+001 -4.100000e+001  1.100000e+001
    endloop
  endfacet
  facet normal  0.000000e+000  0.000000e+000  1.000000e+000
    outer loop
      vertex  3.500000e+001 -4.100000e+001  1.100000e+001
      vertex  3.250000e+001 -4.533013e+001  1.100000e+001
      vertex  3.433013e+001 -4.350000e+001  1.100000e+001
    endloop
  endfacet
  facet normal  0.000000e+000  0.000000e+000 -1.000000e+000
    outer loop
      vertex  3.000000e+001 -4.600000e+001  0.000000e+000
      vertex  0.000000e+000 -4.600000e+001  0.000000e+000
      vertex  3.250000e+001 -4.533013e+001  0.000000e+000
    endloop
  endfacet
  facet normal  0.000000e+000  0.000000e+000 -1.000000e+000
    outer loop
      vertex  3.500000e+001  4.100000e+001  0.000000e+000
      vertex  3.500000e+001 -4.100000e+001  0.000000e+000
      vertex  2.800000e+001 -3.000000e+001  0.000000e+000
    endloop
  endfacet
  facet normal  0.000000e+000  0.000000e+000 -1.000000e+000
    outer loop
      vertex  3.500000e+001  4.100000e+001  0.000000e+000
      vertex  2.800000e+001 -3.000000e+001  0.000000e+000
      vertex  2.800000e+001  3.000000e+001  0.000000e+000
    endloop
  endfacet
  facet normal  0.000000e+000  0.000000e+000 -9.999999e-001
    outer loop
      vertex  3.500000e+001  4.100000e+001  0.000000e+000
      vertex  2.800000e+001  3.000000e+001  0.000000e+000
      vertex  2.733013e+001  3.250000e+001  0.000000e+000
    endloop
  endfacet
  facet normal  0.000000e+000  0.000000e+000 -9.999999e-001
    outer loop
      vertex  3.500000e+001  4.100000e+001  0.000000e+000
      vertex  2.733013e+001  3.250000e+001  0.000000e+000
      vertex  2.550000e+001  3.433013e+001  0.000000e+000
    endloop
  endfacet
  facet normal -5.142735e-016  7.324875e-016 -9.999999e-001
    outer loop
      vertex  3.500000e+001  4.100000e+001  0.000000e+000
      vertex  2.550000e+001  3.433013e+001  0.000000e+000
      vertex  2.300000e+001  3.500000e+001  1.776357e-015
    endloop
  endfacet
  facet normal  -0.000000e+000 -2.960595e-016 -1.000000e+000
    outer loop
      vertex  3.500000e+001  4.100000e+001  0.000000e+000
      vertex  2.300000e+001  3.500000e+001  1.776357e-015
      vertex  0.000000e+000  3.500000e+001  1.776357e-015
    endloop
  endfacet
  facet normal  -0.000000e+000  0.000000e+000 -9.999999e-001
    outer loop
      vertex  3.500000e+001 -4.100000e+001  0.000000e+000
      vertex  3.433013e+001 -4.350000e+001  0.000000e+000
      vertex  3.250000e+001 -4.533013e+001  0.000000e+000
    endloop
  endfacet
  facet normal  -0.000000e+000  0.000000e+000 -1.000000e+000
    outer loop
      vertex  3.500000e+001 -4.100000e+001  0.000000e+000
      vertex  3.250000e+001 -4.533013e+001  0.000000e+000
      vertex  0.000000e+000 -4.600000e+001  0.000000e+000
    endloop
  endfacet
  facet normal  0.000000e+000  0.000000e+000 -1.000000e+000
    outer loop
      vertex  3.500000e+001 -4.100000e+001  0.000000e+000
      vertex  0.000000e+000 -4.600000e+001  0.000000e+000
      vertex -2.131628e-014 -3.500000e+001  0.000000e+000
    endloop
  endfacet
  facet normal  0.000000e+000  0.000000e+000 -1.000000e+000
    outer loop
      vertex  3.500000e+001 -4.100000e+001  0.000000e+000
      vertex -2.131628e-014 -3.500000e+001  0.000000e+000
      vertex  2.300000e+001 -3.500000e+001  0.000000e+000
    endloop
  endfacet
  facet normal  0.000000e+000  0.000000e+000 -9.999999e-001
    outer loop
      vertex  3.500000e+001 -4.100000e+001  0.000000e+000
      vertex  2.300000e+001 -3.500000e+001  0.000000e+000
      vertex  2.550000e+001 -3.433013e+001  0.000000e+000
    endloop
  endfacet
  facet normal  0.000000e+000  0.000000e+000 -9.999999e-001
    outer loop
      vertex  3.500000e+001 -4.100000e+001  0.000000e+000
      vertex  2.550000e+001 -3.433013e+001  0.000000e+000
      vertex  2.733013e+001 -3.250000e+001  0.000000e+000
    endloop
  endfacet
  facet normal  0.000000e+000  0.000000e+000 -9.999999e-001
    outer loop
      vertex  3.500000e+001 -4.100000e+001  0.000000e+000
      vertex  2.733013e+001 -3.250000e+001  0.000000e+000
      vertex  2.800000e+001 -3.000000e+001  0.000000e+000
    endloop
  endfacet
  facet normal  -0.000000e+000 -1.614870e-016 -9.999999e-001
    outer loop
      vertex  0.000000e+000  4.600000e+001  0.000000e+000
      vertex  3.000000e+001  4.600000e+001  0.000000e+000
      vertex  0.000000e+000  3.500000e+001  1.776357e-015
    endloop
  endfacet
  facet normal -2.500059e-017 -9.330358e-017 -9.999999e-001
    outer loop
      vertex  0.000000e+000  3.500000e+001  1.776357e-015
      vertex  3.000000e+001  4.600000e+001  0.000000e+000
      vertex  3.250000e+001  4.533013e+001  0.000000e+000
    endloop
  endfacet
  facet normal -4.618220e-017 -2.666330e-017 -1.000000e+000
    outer loop
      vertex  0.000000e+000  3.500000e+001  1.776357e-015
      vertex  3.250000e+001  4.533013e+001  0.000000e+000
      vertex  3.500000e+001  4.100000e+001  0.000000e+000
    endloop
  endfacet
  facet normal  0.000000e+000  0.000000e+000 -1.000000e+000
    outer loop
      vertex  3.500000e+001  4.100000e+001  0.000000e+000
      vertex  3.250000e+001  4.533013e+001  0.000000e+000
      vertex  3.433013e+001  4.350000e+001  0.000000e+000
    endloop
  endfacet
  facet normal  1.000000e+000  0.000000e+000  0.000000e+000
    outer loop
      vertex  3.500000e+001 -4.100000e+001  0.000000e+000
      vertex  3.500000e+001  4.100000e+001  0.000000e+000
      vertex  3.500000e+001 -4.100000e+001  1.100000e+001
    endloop
  endfacet
  facet normal  1.000000e+000  -0.000000e+000  0.000000e+000
    outer loop
      vertex  3.500000e+001 -4.100000e+001  1.100000e+001
      vertex  3.500000e+001  4.100000e+001  0.000000e+000
      vertex  3.500000e+001  4.100000e+001  1.100000e+001
    endloop
  endfacet
  facet normal  0.000000e+000 -9.999999e-001  0.000000e+000
    outer loop
      vertex  0.000000e+000 -4.600000e+001  1.100000e+001
      vertex  0.000000e+000 -4.600000e+001  0.000000e+000
      vertex  3.000000e+001 -4.600000e+001  1.100000e+001
    endloop
  endfacet
  facet normal  0.000000e+000 -9.999999e-001  -0.000000e+000
    outer loop
      vertex  3.000000e+001 -4.600000e+001  1.100000e+001
      vertex  0.000000e+000 -4.600000e+001  0.000000e+000
      vertex  3.000000e+001 -4.600000e+001  0.000000e+000
    endloop
  endfacet
  facet normal  9.659259e-001 -2.588188e-001  0.000000e+000
    outer loop
      vertex  3.500000e+001 -4.100000e+001  0.000000e+000
      vertex  3.500000e+001 -4.100000e+001  1.100000e+001
      vertex  3.433013e+001 -4.350000e+001  0.000000e+000
    endloop
  endfacet
  facet normal  9.659259e-001 -2.588188e-001  0.000000e+000
    outer loop
      vertex  3.433013e+001 -4.350000e+001  0.000000e+000
      vertex  3.500000e+001 -4.100000e+001  1.100000e+001
      vertex  3.433013e+001 -4.350000e+001  1.100000e+001
    endloop
  endfacet
  facet normal  7.071068e-001 -7.071068e-001  0.000000e+000
    outer loop
      vertex  3.433013e+001 -4.350000e+001  0.000000e+000
      vertex  3.433013e+001 -4.350000e+001  1.100000e+001
      vertex  3.250000e+001 -4.533013e+001  0.000000e+000
    endloop
  endfacet
  facet normal  7.071068e-001 -7.071068e-001  0.000000e+000
    outer loop
      vertex  3.250000e+001 -4.533013e+001  0.000000e+000
      vertex  3.433013e+001 -4.350000e+001  1.100000e+001
      vertex  3.250000e+001 -4.533013e+001  1.100000e+001
    endloop
  endfacet
  facet normal  2.588188e-001 -9.659259e-001  0.000000e+000
    outer loop
      vertex  3.250000e+001 -4.533013e+001  0.000000e+000
      vertex  3.250000e+001 -4.533013e+001  1.100000e+001
      vertex  3.000000e+001 -4.600000e+001  0.000000e+000
    endloop
  endfacet
  facet normal  2.588188e-001 -9.659259e-001  0.000000e+000
    outer loop
      vertex  3.000000e+001 -4.600000e+001  0.000000e+000
      vertex  3.250000e+001 -4.533013e+001  1.100000e+001
      vertex  3.000000e+001 -4.600000e+001  1.100000e+001
    endloop
  endfacet
  facet normal -9.999999e-001  0.000000e+000  0.000000e+000
    outer loop
      vertex  2.800000e+001 -3.000000e+001  0.000000e+000
      vertex  2.800000e+001 -3.000000e+001  1.100000e+001
      vertex  2.800000e+001  3.000000e+001  0.000000e+000
    endloop
  endfacet
  facet normal -9.999999e-001  0.000000e+000  0.000000e+000
    outer loop
      vertex  2.800000e+001  3.000000e+001  0.000000e+000
      vertex  2.800000e+001 -3.000000e+001  1.100000e+001
      vertex  2.800000e+001  3.000000e+001  1.100000e+001
    endloop
  endfacet
  facet normal  0.000000e+000  1.000000e+000  0.000000e+000
    outer loop
      vertex  2.300000e+001 -3.500000e+001  0.000000e+000
      vertex -2.131628e-014 -3.500000e+001  0.000000e+000
      vertex  2.300000e+001 -3.500000e+001  1.100000e+001
    endloop
  endfacet
  facet normal  0.000000e+000  1.000000e+000  0.000000e+000
    outer loop
      vertex  2.300000e+001 -3.500000e+001  1.100000e+001
      vertex -2.131628e-014 -3.500000e+001  0.000000e+000
      vertex  0.000000e+000 -3.500000e+001  1.100000e+001
    endloop
  endfacet
  facet normal -2.588188e-001  9.659259e-001  0.000000e+000
    outer loop
      vertex  2.550000e+001 -3.433013e+001  1.100000e+001
      vertex  2.300000e+001 -3.500000e+001  0.000000e+000
      vertex  2.300000e+001 -3.500000e+001  1.100000e+001
    endloop
  endfacet
  facet normal -2.588188e-001  9.659259e-001  0.000000e+000
    outer loop
      vertex  2.300000e+001 -3.500000e+001  0.000000e+000
      vertex  2.550000e+001 -3.433013e+001  1.100000e+001
      vertex  2.550000e+001 -3.433013e+001  0.000000e+000
    endloop
  endfacet
  facet normal -7.071068e-001  7.071068e-001  0.000000e+000
    outer loop
      vertex  2.550000e+001 -3.433013e+001  0.000000e+000
      vertex  2.550000e+001 -3.433013e+001  1.100000e+001
      vertex  2.733013e+001 -3.250000e+001  1.100000e+001
    endloop
  endfacet
  facet normal -7.071068e-001  7.071068e-001  0.000000e+000
    outer loop
      vertex  2.550000e+001 -3.433013e+001  0.000000e+000
      vertex  2.733013e+001 -3.250000e+001  1.100000e+001
      vertex  2.733013e+001 -3.250000e+001  0.000000e+000
    endloop
  endfacet
  facet normal -9.659259e-001  2.588188e-001  0.000000e+000
    outer loop
      vertex  2.733013e+001 -3.250000e+001  0.000000e+000
      vertex  2.733013e+001 -3.250000e+001  1.100000e+001
      vertex  2.800000e+001 -3.000000e+001  1.100000e+001
    endloop
  endfacet
  facet normal -9.659259e-001  2.588188e-001  0.000000e+000
    outer loop
      vertex  2.733013e+001 -3.250000e+001  0.000000e+000
      vertex  2.800000e+001 -3.000000e+001  1.100000e+001
      vertex  2.800000e+001 -3.000000e+001  0.000000e+000
    endloop
  endfacet
  facet normal  0.000000e+000 -1.000000e+000  0.000000e+000
    outer loop
      vertex  0.000000e+000  3.500000e+001  1.776357e-015
      vertex  2.300000e+001  3.500000e+001  1.776357e-015
      vertex  0.000000e+000  3.500000e+001  1.100000e+001
    endloop
  endfacet
  facet normal  0.000000e+000 -1.000000e+000  0.000000e+000
    outer loop
      vertex  0.000000e+000  3.500000e+001  1.100000e+001
      vertex  2.300000e+001  3.500000e+001  1.776357e-015
      vertex  2.300000e+001  3.500000e+001  1.100000e+001
    endloop
  endfacet
  facet normal -9.659259e-001 -2.588188e-001  0.000000e+000
    outer loop
      vertex  2.733013e+001  3.250000e+001  1.100000e+001
      vertex  2.800000e+001  3.000000e+001  0.000000e+000
      vertex  2.800000e+001  3.000000e+001  1.100000e+001
    endloop
  endfacet
  facet normal -9.659259e-001 -2.588188e-001  -0.000000e+000
    outer loop
      vertex  2.800000e+001  3.000000e+001  0.000000e+000
      vertex  2.733013e+001  3.250000e+001  1.100000e+001
      vertex  2.733013e+001  3.250000e+001  0.000000e+000
    endloop
  endfacet
  facet normal -7.071068e-001 -7.071068e-001  0.000000e+000
    outer loop
      vertex  2.733013e+001  3.250000e+001  0.000000e+000
      vertex  2.733013e+001  3.250000e+001  1.100000e+001
      vertex  2.550000e+001  3.433013e+001  1.100000e+001
    endloop
  endfacet
  facet normal -7.071068e-001 -7.071068e-001  -0.000000e+000
    outer loop
      vertex  2.733013e+001  3.250000e+001  0.000000e+000
      vertex  2.550000e+001  3.433013e+001  1.100000e+001
      vertex  2.550000e+001  3.433013e+001  0.000000e+000
    endloop
  endfacet
  facet normal -2.588188e-001 -9.659259e-001  0.000000e+000
    outer loop
      vertex  2.550000e+001  3.433013e+001  0.000000e+000
      vertex  2.550000e+001  3.433013e+001  1.100000e+001
      vertex  2.300000e+001  3.500000e+001  1.100000e+001
    endloop
  endfacet
  facet normal -2.588188e-001 -9.659259e-001  -0.000000e+000
    outer loop
      vertex  2.550000e+001  3.433013e+001  0.000000e+000
      vertex  2.300000e+001  3.500000e+001  1.100000e+001
      vertex  2.300000e+001  3.500000e+001  1.776357e-015
    endloop
  endfacet
  facet normal  0.000000e+000  9.999999e-001  0.000000e+000
    outer loop
      vertex  0.000000e+000  4.600000e+001  0.000000e+000
      vertex  0.000000e+000  4.600000e+001  1.100000e+001
      vertex  3.000000e+001  4.600000e+001  0.000000e+000
    endloop
  endfacet
  facet normal  0.000000e+000  9.999999e-001  -0.000000e+000
    outer loop
      vertex  3.000000e+001  4.600000e+001  0.000000e+000
      vertex  0.000000e+000  4.600000e+001  1.100000e+001
      vertex  3.000000e+001  4.600000e+001  1.100000e+001
    endloop
  endfacet
  facet normal  2.588188e-001  9.659259e-001  0.000000e+000
    outer loop
      vertex  3.000000e+001  4.600000e+001  0.000000e+000
      vertex  3.000000e+001  4.600000e+001  1.100000e+001
      vertex  3.250000e+001  4.533013e+001  0.000000e+000
    endloop
  endfacet
  facet normal  2.588188e-001  9.659259e-001  -0.000000e+000
    outer loop
      vertex  3.250000e+001  4.533013e+001  0.000000e+000
      vertex  3.000000e+001  4.600000e+001  1.100000e+001
      vertex  3.250000e+001  4.533013e+001  1.100000e+001
    endloop
  endfacet
  facet normal  7.071068e-001  7.071068e-001  0.000000e+000
    outer loop
      vertex  3.250000e+001  4.533013e+001  0.000000e+000
      vertex  3.250000e+001  4.533013e+001  1.100000e+001
      vertex  3.433013e+001  4.350000e+001  0.000000e+000
    endloop
  endfacet
  facet normal  7.071068e-001  7.071068e-001  -0.000000e+000
    outer loop
      vertex  3.433013e+001  4.350000e+001  0.000000e+000
      vertex  3.250000e+001  4.533013e+001  1.100000e+001
      vertex  3.433013e+001  4.350000e+001  1.100000e+001
    endloop
  endfacet
  facet normal  9.659259e-001  2.588188e-001  0.000000e+000
    outer loop
      vertex  3.433013e+001  4.350000e+001  0.000000e+000
      vertex  3.433013e+001  4.350000e+001  1.100000e+001
      vertex  3.500000e+001  4.100000e+001  0.000000e+000
    endloop
  endfacet
  facet normal  9.659259e-001  2.588188e-001  -0.000000e+000
    outer loop
      vertex  3.500000e+001  4.100000e+001  0.000000e+000
      vertex  3.433013e+001  4.350000e+001  1.100000e+001
      vertex  3.500000e+001  4.100000e+001  1.100000e+001
    endloop
  endfacet
  facet normal -9.999999e-001 -1.937844e-015  -0.000000e+000
    outer loop
      vertex  0.000000e+000 -4.600000e+001  0.000000e+000
      vertex  0.000000e+000 -4.600000e+001  1.100000e+001
      vertex -2.131628e-014 -3.500000e+001  0.000000e+000
    endloop
  endfacet
  facet normal -9.999999e-001  0.000000e+000  1.937844e-015
    outer loop
      vertex -2.131628e-014 -3.500000e+001  0.000000e+000
      vertex  0.000000e+000 -4.600000e+001  1.100000e+001
      vertex  0.000000e+000 -3.500000e+001  1.100000e+001
    endloop
  endfacet
  facet normal -9.999999e-001  0.000000e+000  0.000000e+000
    outer loop
      vertex  0.000000e+000  3.500000e+001  1.776357e-015
      vertex  0.000000e+000  3.500000e+001  1.100000e+001
      vertex  0.000000e+000  4.600000e+001  0.000000e+000
    endloop
  endfacet
  facet normal -9.999999e-001  0.000000e+000  0.000000e+000
    outer loop
      vertex  0.000000e+000  4.600000e+001  0.000000e+000
      vertex  0.000000e+000  3.500000e+001  1.100000e+001
      vertex  0.000000e+000  4.600000e+001  1.100000e+001
    endloop
  endfacet
endsolid CATIA STL
