solid CATIA STL
  facet normal  2.691450e-016  3.517538e-016 -1.000000e+000
    outer loop
      vertex -3.200000e+000  1.010000e+001  0.000000e+000
      vertex  1.000000e+001 -5.329071e-015  0.000000e+000
      vertex -3.200000e+000 -5.329071e-015 -3.552714e-015
    endloop
  endfacet
  facet normal  0.000000e+000  0.000000e+000 -1.000000e+000
    outer loop
      vertex  1.000000e+001 -5.329071e-015  0.000000e+000
      vertex -3.200000e+000  1.010000e+001  0.000000e+000
      vertex  1.000000e+001  1.500000e+001  0.000000e+000
    endloop
  endfacet
  facet normal  0.000000e+000  0.000000e+000 -1.000000e+000
    outer loop
      vertex  1.000000e+001  1.500000e+001  0.000000e+000
      vertex -3.200000e+000  1.010000e+001  0.000000e+000
      vertex -7.200000e+000  1.010000e+001  0.000000e+000
    endloop
  endfacet
  facet normal  0.000000e+000  0.000000e+000 -1.000000e+000
    outer loop
      vertex  1.000000e+001  1.500000e+001  0.000000e+000
      vertex -7.200000e+000  1.010000e+001  0.000000e+000
      vertex -1.000000e+001  1.500000e+001  0.000000e+000
    endloop
  endfacet
  facet normal  6.155691e-016  3.517538e-016 -1.000000e+000
    outer loop
      vertex -1.000000e+001  1.500000e+001  0.000000e+000
      vertex -7.200000e+000  1.010000e+001  0.000000e+000
      vertex -7.200000e+000 -5.329071e-015 -3.552714e-015
    endloop
  endfacet
  facet normal  0.000000e+000  2.368476e-016 -1.000000e+000
    outer loop
      vertex -1.000000e+001  1.500000e+001  0.000000e+000
      vertex -7.200000e+000 -5.329071e-015 -3.552714e-015
      vertex -1.000000e+001 -5.329071e-015 -3.552714e-015
    endloop
  endfacet
  facet normal  1.000000e+000  0.000000e+000  0.000000e+000
    outer loop
      vertex  1.000000e+001 -1.500000e+001  2.000000e+001
      vertex  1.000000e+001 -1.500000e+001  1.000000e+001
      vertex  1.000000e+001  1.500000e+001  2.000000e+001
    endloop
  endfacet
  facet normal  1.000000e+000  0.000000e+000  0.000000e+000
    outer loop
      vertex  1.000000e+001  1.500000e+001  2.000000e+001
      vertex  1.000000e+001 -1.500000e+001  1.000000e+001
      vertex  1.000000e+001 -5.329071e-015  1.000000e+001
    endloop
  endfacet
  facet normal  1.000000e+000  -0.000000e+000  0.000000e+000
    outer loop
      vertex  1.000000e+001  1.500000e+001  2.000000e+001
      vertex  1.000000e+001 -5.329071e-015  1.000000e+001
      vertex  1.000000e+001  1.500000e+001  0.000000e+000
    endloop
  endfacet
  facet normal  1.000000e+000  0.000000e+000  0.000000e+000
    outer loop
      vertex  1.000000e+001  1.500000e+001  0.000000e+000
      vertex  1.000000e+001 -5.329071e-015  1.000000e+001
      vertex  1.000000e+001 -5.329071e-015  0.000000e+000
    endloop
  endfacet
  facet normal  0.000000e+000 -1.000000e+000  0.000000e+000
    outer loop
      vertex  1.000000e+001 -1.500000e+001  2.000000e+001
      vertex -1.000000e+001 -1.500000e+001  2.000000e+001
      vertex  1.000000e+001 -1.500000e+001  1.000000e+001
    endloop
  endfacet
  facet normal  0.000000e+000 -1.000000e+000  0.000000e+000
    outer loop
      vertex  1.000000e+001 -1.500000e+001  1.000000e+001
      vertex -1.000000e+001 -1.500000e+001  2.000000e+001
      vertex -1.000000e+001 -1.500000e+001  1.000000e+001
    endloop
  endfacet
  facet normal -1.000000e+000  -0.000000e+000  0.000000e+000
    outer loop
      vertex -1.000000e+001  1.500000e+001  2.000000e+001
      vertex -1.000000e+001  1.500000e+001  0.000000e+000
      vertex -1.000000e+001 -5.329071e-015 -3.552714e-015
    endloop
  endfacet
  facet normal -1.000000e+000  0.000000e+000  0.000000e+000
    outer loop
      vertex -1.000000e+001  1.500000e+001  2.000000e+001
      vertex -1.000000e+001 -5.329071e-015 -3.552714e-015
      vertex -1.000000e+001 -5.329071e-015  1.000000e+001
    endloop
  endfacet
  facet normal -1.000000e+000  0.000000e+000  0.000000e+000
    outer loop
      vertex -1.000000e+001  1.500000e+001  2.000000e+001
      vertex -1.000000e+001 -5.329071e-015  1.000000e+001
      vertex -1.000000e+001 -1.500000e+001  1.000000e+001
    endloop
  endfacet
  facet normal -1.000000e+000  0.000000e+000  0.000000e+000
    outer loop
      vertex -1.000000e+001  1.500000e+001  2.000000e+001
      vertex -1.000000e+001 -1.500000e+001  1.000000e+001
      vertex -1.000000e+001 -1.500000e+001  2.000000e+001
    endloop
  endfacet
  facet normal -1.000000e+000  0.000000e+000  0.000000e+000
    outer loop
      vertex -3.200000e+000  1.010000e+001  0.000000e+000
      vertex -3.200000e+000 -5.329071e-015 -3.552714e-015
      vertex -3.200000e+000  1.010000e+001  1.800000e+001
    endloop
  endfacet
  facet normal -1.000000e+000  0.000000e+000  0.000000e+000
    outer loop
      vertex -3.200000e+000  1.010000e+001  1.800000e+001
      vertex -3.200000e+000 -5.329071e-015 -3.552714e-015
      vertex -3.200000e+000 -5.329071e-015  1.000000e+001
    endloop
  endfacet
  facet normal -9.999999e-001  0.000000e+000  0.000000e+000
    outer loop
      vertex -3.200000e+000  1.010000e+001  1.800000e+001
      vertex -3.200000e+000 -5.329071e-015  1.000000e+001
      vertex -3.200000e+000 -1.010000e+001  1.800000e+001
    endloop
  endfacet
  facet normal -9.999999e-001  0.000000e+000  0.000000e+000
    outer loop
      vertex -3.200000e+000 -1.010000e+001  1.800000e+001
      vertex -3.200000e+000 -5.329071e-015  1.000000e+001
      vertex -3.200000e+000 -1.010000e+001  1.000000e+001
    endloop
  endfacet
  facet normal  1.000000e+000  0.000000e+000  0.000000e+000
    outer loop
      vertex -7.200000e+000 -5.329071e-015 -3.552714e-015
      vertex -7.200000e+000  1.010000e+001  0.000000e+000
      vertex -7.200000e+000 -5.329071e-015  1.000000e+001
    endloop
  endfacet
  facet normal  1.000000e+000  -0.000000e+000  0.000000e+000
    outer loop
      vertex -7.200000e+000 -5.329071e-015  1.000000e+001
      vertex -7.200000e+000  1.010000e+001  0.000000e+000
      vertex -7.200000e+000  1.010000e+001  2.000000e+001
    endloop
  endfacet
  facet normal  1.000000e+000  0.000000e+000  0.000000e+000
    outer loop
      vertex -7.200000e+000 -5.329071e-015  1.000000e+001
      vertex -7.200000e+000  1.010000e+001  2.000000e+001
      vertex -7.200000e+000 -1.010000e+001  1.000000e+001
    endloop
  endfacet
  facet normal  1.000000e+000  0.000000e+000  0.000000e+000
    outer loop
      vertex -7.200000e+000 -1.010000e+001  1.000000e+001
      vertex -7.200000e+000  1.010000e+001  2.000000e+001
      vertex -7.200000e+000 -1.010000e+001  2.000000e+001
    endloop
  endfacet
  facet normal  0.000000e+000  1.000000e+000  0.000000e+000
    outer loop
      vertex -7.200000e+000 -1.010000e+001  1.000000e+001
      vertex -7.200000e+000 -1.010000e+001  2.000000e+001
      vertex -3.200000e+000 -1.010000e+001  1.000000e+001
    endloop
  endfacet
  facet normal  0.000000e+000  1.000000e+000  -0.000000e+000
    outer loop
      vertex -3.200000e+000 -1.010000e+001  1.000000e+001
      vertex -7.200000e+000 -1.010000e+001  2.000000e+001
      vertex -3.200000e+000 -1.010000e+001  1.800000e+001
    endloop
  endfacet
  facet normal  0.000000e+000  1.000000e+000  0.000000e+000
    outer loop
      vertex -7.200000e+000 -1.010000e+001  2.000000e+001
      vertex  8.000000e+000 -1.010000e+001  2.000000e+001
      vertex -3.200000e+000 -1.010000e+001  1.800000e+001
    endloop
  endfacet
  facet normal  0.000000e+000  1.000000e+000  0.000000e+000
    outer loop
      vertex -3.200000e+000 -1.010000e+001  1.800000e+001
      vertex  8.000000e+000 -1.010000e+001  2.000000e+001
      vertex  8.000000e+000 -1.010000e+001  1.800000e+001
    endloop
  endfacet
  facet normal  0.000000e+000 -1.000000e+000  -0.000000e+000
    outer loop
      vertex  1.000000e+001 -5.329071e-015  0.000000e+000
      vertex  1.000000e+001 -5.329071e-015  1.000000e+001
      vertex -3.200000e+000 -5.329071e-015 -3.552714e-015
    endloop
  endfacet
  facet normal  0.000000e+000 -1.000000e+000  0.000000e+000
    outer loop
      vertex -3.200000e+000 -5.329071e-015 -3.552714e-015
      vertex  1.000000e+001 -5.329071e-015  1.000000e+001
      vertex -3.200000e+000 -5.329071e-015  1.000000e+001
    endloop
  endfacet
  facet normal  0.000000e+000 -1.000000e+000  -0.000000e+000
    outer loop
      vertex -7.200000e+000 -5.329071e-015 -3.552714e-015
      vertex -7.200000e+000 -5.329071e-015  1.000000e+001
      vertex -1.000000e+001 -5.329071e-015 -3.552714e-015
    endloop
  endfacet
  facet normal  0.000000e+000 -1.000000e+000  0.000000e+000
    outer loop
      vertex -1.000000e+001 -5.329071e-015 -3.552714e-015
      vertex -7.200000e+000 -5.329071e-015  1.000000e+001
      vertex -1.000000e+001 -5.329071e-015  1.000000e+001
    endloop
  endfacet
  facet normal  0.000000e+000  0.000000e+000 -1.000000e+000
    outer loop
      vertex -1.000000e+001 -1.500000e+001  1.000000e+001
      vertex -1.000000e+001 -5.329071e-015  1.000000e+001
      vertex -7.200000e+000 -5.329071e-015  1.000000e+001
    endloop
  endfacet
  facet normal  0.000000e+000  -0.000000e+000 -1.000000e+000
    outer loop
      vertex -1.000000e+001 -1.500000e+001  1.000000e+001
      vertex -7.200000e+000 -5.329071e-015  1.000000e+001
      vertex -7.200000e+000 -1.010000e+001  1.000000e+001
    endloop
  endfacet
  facet normal  0.000000e+000  -0.000000e+000 -1.000000e+000
    outer loop
      vertex -1.000000e+001 -1.500000e+001  1.000000e+001
      vertex -7.200000e+000 -1.010000e+001  1.000000e+001
      vertex  1.000000e+001 -1.500000e+001  1.000000e+001
    endloop
  endfacet
  facet normal  -0.000000e+000  -0.000000e+000 -1.000000e+000
    outer loop
      vertex -7.200000e+000 -1.010000e+001  1.000000e+001
      vertex -3.200000e+000 -1.010000e+001  1.000000e+001
      vertex  1.000000e+001 -1.500000e+001  1.000000e+001
    endloop
  endfacet
  facet normal  0.000000e+000  0.000000e+000 -1.000000e+000
    outer loop
      vertex  1.000000e+001 -1.500000e+001  1.000000e+001
      vertex -3.200000e+000 -1.010000e+001  1.000000e+001
      vertex -3.200000e+000 -5.329071e-015  1.000000e+001
    endloop
  endfacet
  facet normal  0.000000e+000  0.000000e+000 -1.000000e+000
    outer loop
      vertex  1.000000e+001 -1.500000e+001  1.000000e+001
      vertex -3.200000e+000 -5.329071e-015  1.000000e+001
      vertex  1.000000e+001 -5.329071e-015  1.000000e+001
    endloop
  endfacet
  facet normal  0.000000e+000  0.000000e+000  1.000000e+000
    outer loop
      vertex  1.000000e+001 -1.500000e+001  2.000000e+001
      vertex  8.000000e+000 -1.010000e+001  2.000000e+001
      vertex -1.000000e+001 -1.500000e+001  2.000000e+001
    endloop
  endfacet
  facet normal  0.000000e+000  0.000000e+000  1.000000e+000
    outer loop
      vertex -1.000000e+001 -1.500000e+001  2.000000e+001
      vertex  8.000000e+000 -1.010000e+001  2.000000e+001
      vertex -7.200000e+000 -1.010000e+001  2.000000e+001
    endloop
  endfacet
  facet normal  0.000000e+000  0.000000e+000  1.000000e+000
    outer loop
      vertex -1.000000e+001 -1.500000e+001  2.000000e+001
      vertex -7.200000e+000 -1.010000e+001  2.000000e+001
      vertex -1.000000e+001  1.500000e+001  2.000000e+001
    endloop
  endfacet
  facet normal  0.000000e+000  0.000000e+000  1.000000e+000
    outer loop
      vertex -1.000000e+001  1.500000e+001  2.000000e+001
      vertex -7.200000e+000 -1.010000e+001  2.000000e+001
      vertex -7.200000e+000  1.010000e+001  2.000000e+001
    endloop
  endfacet
  facet normal  0.000000e+000  -0.000000e+000  1.000000e+000
    outer loop
      vertex -1.000000e+001  1.500000e+001  2.000000e+001
      vertex -7.200000e+000  1.010000e+001  2.000000e+001
      vertex  1.000000e+001  1.500000e+001  2.000000e+001
    endloop
  endfacet
  facet normal  0.000000e+000  0.000000e+000  1.000000e+000
    outer loop
      vertex  1.000000e+001  1.500000e+001  2.000000e+001
      vertex -7.200000e+000  1.010000e+001  2.000000e+001
      vertex  8.000000e+000  1.010000e+001  2.000000e+001
    endloop
  endfacet
  facet normal  -0.000000e+000  0.000000e+000  1.000000e+000
    outer loop
      vertex  1.000000e+001  1.500000e+001  2.000000e+001
      vertex  8.000000e+000  1.010000e+001  2.000000e+001
      vertex  1.000000e+001 -1.500000e+001  2.000000e+001
    endloop
  endfacet
  facet normal  0.000000e+000  0.000000e+000  9.999999e-001
    outer loop
      vertex  1.000000e+001 -1.500000e+001  2.000000e+001
      vertex  8.000000e+000  1.010000e+001  2.000000e+001
      vertex  8.000000e+000 -1.010000e+001  2.000000e+001
    endloop
  endfacet
  facet normal  0.000000e+000 -9.999999e-001  -0.000000e+000
    outer loop
      vertex -3.200000e+000  1.010000e+001  0.000000e+000
      vertex -3.200000e+000  1.010000e+001  1.800000e+001
      vertex -7.200000e+000  1.010000e+001  0.000000e+000
    endloop
  endfacet
  facet normal  0.000000e+000 -1.000000e+000  0.000000e+000
    outer loop
      vertex -7.200000e+000  1.010000e+001  0.000000e+000
      vertex -3.200000e+000  1.010000e+001  1.800000e+001
      vertex -7.200000e+000  1.010000e+001  2.000000e+001
    endloop
  endfacet
  facet normal  0.000000e+000 -1.000000e+000  0.000000e+000
    outer loop
      vertex -3.200000e+000  1.010000e+001  1.800000e+001
      vertex  8.000000e+000  1.010000e+001  1.800000e+001
      vertex -7.200000e+000  1.010000e+001  2.000000e+001
    endloop
  endfacet
  facet normal  0.000000e+000 -1.000000e+000  0.000000e+000
    outer loop
      vertex -7.200000e+000  1.010000e+001  2.000000e+001
      vertex  8.000000e+000  1.010000e+001  1.800000e+001
      vertex  8.000000e+000  1.010000e+001  2.000000e+001
    endloop
  endfacet
  facet normal  0.000000e+000  0.000000e+000  1.000000e+000
    outer loop
      vertex -3.200000e+000 -1.010000e+001  1.800000e+001
      vertex  8.000000e+000 -1.010000e+001  1.800000e+001
      vertex -3.200000e+000  1.010000e+001  1.800000e+001
    endloop
  endfacet
  facet normal  -0.000000e+000  0.000000e+000  1.000000e+000
    outer loop
      vertex -3.200000e+000  1.010000e+001  1.800000e+001
      vertex  8.000000e+000 -1.010000e+001  1.800000e+001
      vertex  8.000000e+000  1.010000e+001  1.800000e+001
    endloop
  endfacet
  facet normal -9.999999e-001  0.000000e+000  0.000000e+000
    outer loop
      vertex  8.000000e+000 -1.010000e+001  1.800000e+001
      vertex  8.000000e+000 -1.010000e+001  2.000000e+001
      vertex  8.000000e+000  1.010000e+001  1.800000e+001
    endloop
  endfacet
  facet normal -9.999999e-001  0.000000e+000  0.000000e+000
    outer loop
      vertex  8.000000e+000  1.010000e+001  1.800000e+001
      vertex  8.000000e+000 -1.010000e+001  2.000000e+001
      vertex  8.000000e+000  1.010000e+001  2.000000e+001
    endloop
  endfacet
  facet normal  0.000000e+000  1.000000e+000  0.000000e+000
    outer loop
      vertex -1.000000e+001  1.500000e+001  0.000000e+000
      vertex -1.000000e+001  1.500000e+001  2.000000e+001
      vertex  1.000000e+001  1.500000e+001  0.000000e+000
    endloop
  endfacet
  facet normal  0.000000e+000  1.000000e+000  -0.000000e+000
    outer loop
      vertex  1.000000e+001  1.500000e+001  0.000000e+000
      vertex -1.000000e+001  1.500000e+001  2.000000e+001
      vertex  1.000000e+001  1.500000e+001  2.000000e+001
    endloop
  endfacet
endsolid CATIA STL
