solid CATIA STL
  facet normal  0.000000e+000  0.000000e+000 -1.000000e+000
    outer loop
      vertex -2.657295e+001  1.176336e+001  0.000000e+000
      vertex  2.600000e+001  1.000000e+001  0.000000e+000
      vertex -2.600000e+001  1.000000e+001  0.000000e+000
    endloop
  endfacet
  facet normal  0.000000e+000  0.000000e+000 -1.000000e+000
    outer loop
      vertex  2.600000e+001  1.000000e+001  0.000000e+000
      vertex -2.657295e+001  8.236644e+000  0.000000e+000
      vertex -2.600000e+001  1.000000e+001  0.000000e+000
    endloop
  endfacet
  facet normal  0.000000e+000  -0.000000e+000 -1.000000e+000
    outer loop
      vertex -4.500000e+001  0.000000e+000  0.000000e+000
      vertex -3.200000e+001  1.000000e+001  0.000000e+000
      vertex -3.142705e+001  8.236644e+000  0.000000e+000
    endloop
  endfacet
  facet normal  0.000000e+000  -0.000000e+000 -9.999999e-001
    outer loop
      vertex -4.500000e+001  0.000000e+000  0.000000e+000
      vertex -3.142705e+001  8.236644e+000  0.000000e+000
      vertex -2.992705e+001  7.146831e+000  0.000000e+000
    endloop
  endfacet
  facet normal  0.000000e+000  -0.000000e+000 -1.000000e+000
    outer loop
      vertex -4.500000e+001  0.000000e+000  0.000000e+000
      vertex -2.992705e+001  7.146831e+000  0.000000e+000
      vertex -2.807295e+001  7.146831e+000  0.000000e+000
    endloop
  endfacet
  facet normal  0.000000e+000  -0.000000e+000 -1.000000e+000
    outer loop
      vertex -4.500000e+001  0.000000e+000  0.000000e+000
      vertex -2.807295e+001  7.146831e+000  0.000000e+000
      vertex  4.500000e+001  0.000000e+000  0.000000e+000
    endloop
  endfacet
  facet normal  -0.000000e+000  0.000000e+000 -1.000000e+000
    outer loop
      vertex -4.500000e+001  4.000000e+001  0.000000e+000
      vertex  4.500000e+001  4.000000e+001  0.000000e+000
      vertex -2.807295e+001  1.285317e+001  0.000000e+000
    endloop
  endfacet
  facet normal  0.000000e+000  0.000000e+000 -1.000000e+000
    outer loop
      vertex -4.500000e+001  4.000000e+001  0.000000e+000
      vertex -2.807295e+001  1.285317e+001  0.000000e+000
      vertex -2.992705e+001  1.285317e+001  0.000000e+000
    endloop
  endfacet
  facet normal  -0.000000e+000  0.000000e+000 -9.999999e-001
    outer loop
      vertex -4.500000e+001  4.000000e+001  0.000000e+000
      vertex -2.992705e+001  1.285317e+001  0.000000e+000
      vertex -3.142705e+001  1.176336e+001  0.000000e+000
    endloop
  endfacet
  facet normal  -0.000000e+000  0.000000e+000 -1.000000e+000
    outer loop
      vertex -4.500000e+001  4.000000e+001  0.000000e+000
      vertex -3.142705e+001  1.176336e+001  0.000000e+000
      vertex -3.200000e+001  1.000000e+001  0.000000e+000
    endloop
  endfacet
  facet normal  -0.000000e+000  0.000000e+000 -1.000000e+000
    outer loop
      vertex -4.500000e+001  4.000000e+001  0.000000e+000
      vertex -3.200000e+001  1.000000e+001  0.000000e+000
      vertex -4.500000e+001  0.000000e+000  0.000000e+000
    endloop
  endfacet
  facet normal  0.000000e+000  0.000000e+000 -1.000000e+000
    outer loop
      vertex  4.500000e+001  4.000000e+001  0.000000e+000
      vertex  4.500000e+001  0.000000e+000  0.000000e+000
      vertex  3.200000e+001  1.000000e+001  0.000000e+000
    endloop
  endfacet
  facet normal  0.000000e+000  0.000000e+000 -1.000000e+000
    outer loop
      vertex  4.500000e+001  4.000000e+001  0.000000e+000
      vertex  3.200000e+001  1.000000e+001  0.000000e+000
      vertex  3.142705e+001  1.176336e+001  0.000000e+000
    endloop
  endfacet
  facet normal  0.000000e+000  0.000000e+000 -9.999999e-001
    outer loop
      vertex  4.500000e+001  4.000000e+001  0.000000e+000
      vertex  3.142705e+001  1.176336e+001  0.000000e+000
      vertex  2.992705e+001  1.285317e+001  0.000000e+000
    endloop
  endfacet
  facet normal  0.000000e+000  0.000000e+000 -1.000000e+000
    outer loop
      vertex  4.500000e+001  4.000000e+001  0.000000e+000
      vertex  2.992705e+001  1.285317e+001  0.000000e+000
      vertex  2.807295e+001  1.285317e+001  0.000000e+000
    endloop
  endfacet
  facet normal  0.000000e+000  0.000000e+000 -1.000000e+000
    outer loop
      vertex  4.500000e+001  4.000000e+001  0.000000e+000
      vertex  2.807295e+001  1.285317e+001  0.000000e+000
      vertex -2.807295e+001  1.285317e+001  0.000000e+000
    endloop
  endfacet
  facet normal  -0.000000e+000  0.000000e+000 -9.999999e-001
    outer loop
      vertex -2.807295e+001  1.285317e+001  0.000000e+000
      vertex  2.807295e+001  1.285317e+001  0.000000e+000
      vertex  2.657295e+001  1.176336e+001  0.000000e+000
    endloop
  endfacet
  facet normal  -0.000000e+000  0.000000e+000 -9.999999e-001
    outer loop
      vertex -2.807295e+001  1.285317e+001  0.000000e+000
      vertex  2.657295e+001  1.176336e+001  0.000000e+000
      vertex  2.600000e+001  1.000000e+001  0.000000e+000
    endloop
  endfacet
  facet normal  0.000000e+000  0.000000e+000 -1.000000e+000
    outer loop
      vertex -2.807295e+001  1.285317e+001  0.000000e+000
      vertex  2.600000e+001  1.000000e+001  0.000000e+000
      vertex -2.657295e+001  1.176336e+001  0.000000e+000
    endloop
  endfacet
  facet normal  0.000000e+000  -0.000000e+000 -1.000000e+000
    outer loop
      vertex -2.807295e+001  7.146831e+000  0.000000e+000
      vertex -2.657295e+001  8.236644e+000  0.000000e+000
      vertex  2.600000e+001  1.000000e+001  0.000000e+000
    endloop
  endfacet
  facet normal  0.000000e+000  -0.000000e+000 -9.999999e-001
    outer loop
      vertex -2.807295e+001  7.146831e+000  0.000000e+000
      vertex  2.600000e+001  1.000000e+001  0.000000e+000
      vertex  2.657295e+001  8.236644e+000  0.000000e+000
    endloop
  endfacet
  facet normal  0.000000e+000  -0.000000e+000 -9.999999e-001
    outer loop
      vertex -2.807295e+001  7.146831e+000  0.000000e+000
      vertex  2.657295e+001  8.236644e+000  0.000000e+000
      vertex  2.807295e+001  7.146831e+000  0.000000e+000
    endloop
  endfacet
  facet normal  0.000000e+000  0.000000e+000 -1.000000e+000
    outer loop
      vertex  4.500000e+001  0.000000e+000  0.000000e+000
      vertex -2.807295e+001  7.146831e+000  0.000000e+000
      vertex  2.807295e+001  7.146831e+000  0.000000e+000
    endloop
  endfacet
  facet normal  0.000000e+000  0.000000e+000 -1.000000e+000
    outer loop
      vertex  4.500000e+001  0.000000e+000  0.000000e+000
      vertex  2.807295e+001  7.146831e+000  0.000000e+000
      vertex  2.992705e+001  7.146831e+000  0.000000e+000
    endloop
  endfacet
  facet normal  0.000000e+000  0.000000e+000 -9.999999e-001
    outer loop
      vertex  4.500000e+001  0.000000e+000  0.000000e+000
      vertex  2.992705e+001  7.146831e+000  0.000000e+000
      vertex  3.142705e+001  8.236644e+000  0.000000e+000
    endloop
  endfacet
  facet normal  0.000000e+000  0.000000e+000 -1.000000e+000
    outer loop
      vertex  4.500000e+001  0.000000e+000  0.000000e+000
      vertex  3.142705e+001  8.236644e+000  0.000000e+000
      vertex  3.200000e+001  1.000000e+001  0.000000e+000
    endloop
  endfacet
  facet normal  0.000000e+000  0.000000e+000  1.000000e+000
    outer loop
      vertex -2.657295e+001  8.236644e+000  4.000000e+001
      vertex  2.600000e+001  1.000000e+001  4.000000e+001
      vertex -2.600000e+001  1.000000e+001  4.000000e+001
    endloop
  endfacet
  facet normal  0.000000e+000  0.000000e+000  1.000000e+000
    outer loop
      vertex  2.600000e+001  1.000000e+001  4.000000e+001
      vertex -2.657295e+001  1.176336e+001  4.000000e+001
      vertex -2.600000e+001  1.000000e+001  4.000000e+001
    endloop
  endfacet
  facet normal  0.000000e+000  -0.000000e+000  1.000000e+000
    outer loop
      vertex -4.500000e+001  2.000000e+001  4.000000e+001
      vertex -3.200000e+001  1.000000e+001  4.000000e+001
      vertex -3.142705e+001  1.176336e+001  4.000000e+001
    endloop
  endfacet
  facet normal  0.000000e+000  -0.000000e+000  9.999999e-001
    outer loop
      vertex -4.500000e+001  2.000000e+001  4.000000e+001
      vertex -3.142705e+001  1.176336e+001  4.000000e+001
      vertex -2.992705e+001  1.285317e+001  4.000000e+001
    endloop
  endfacet
  facet normal  0.000000e+000  -0.000000e+000  1.000000e+000
    outer loop
      vertex -4.500000e+001  2.000000e+001  4.000000e+001
      vertex -2.992705e+001  1.285317e+001  4.000000e+001
      vertex -2.807295e+001  1.285317e+001  4.000000e+001
    endloop
  endfacet
  facet normal  0.000000e+000  -0.000000e+000  1.000000e+000
    outer loop
      vertex -4.500000e+001  2.000000e+001  4.000000e+001
      vertex -2.807295e+001  1.285317e+001  4.000000e+001
      vertex  4.500000e+001  2.000000e+001  4.000000e+001
    endloop
  endfacet
  facet normal  0.000000e+000  0.000000e+000  1.000000e+000
    outer loop
      vertex -4.500000e+001  0.000000e+000  4.000000e+001
      vertex  4.500000e+001  0.000000e+000  4.000000e+001
      vertex -2.807295e+001  7.146831e+000  4.000000e+001
    endloop
  endfacet
  facet normal  0.000000e+000  0.000000e+000  1.000000e+000
    outer loop
      vertex -4.500000e+001  0.000000e+000  4.000000e+001
      vertex -2.807295e+001  7.146831e+000  4.000000e+001
      vertex -2.992705e+001  7.146831e+000  4.000000e+001
    endloop
  endfacet
  facet normal  0.000000e+000  0.000000e+000  9.999999e-001
    outer loop
      vertex -4.500000e+001  0.000000e+000  4.000000e+001
      vertex -2.992705e+001  7.146831e+000  4.000000e+001
      vertex -3.142705e+001  8.236644e+000  4.000000e+001
    endloop
  endfacet
  facet normal  0.000000e+000  0.000000e+000  1.000000e+000
    outer loop
      vertex -4.500000e+001  0.000000e+000  4.000000e+001
      vertex -3.142705e+001  8.236644e+000  4.000000e+001
      vertex -3.200000e+001  1.000000e+001  4.000000e+001
    endloop
  endfacet
  facet normal  0.000000e+000  0.000000e+000  1.000000e+000
    outer loop
      vertex -4.500000e+001  0.000000e+000  4.000000e+001
      vertex -3.200000e+001  1.000000e+001  4.000000e+001
      vertex -4.500000e+001  2.000000e+001  4.000000e+001
    endloop
  endfacet
  facet normal  0.000000e+000  0.000000e+000  1.000000e+000
    outer loop
      vertex  4.500000e+001  0.000000e+000  4.000000e+001
      vertex  4.500000e+001  2.000000e+001  4.000000e+001
      vertex  3.200000e+001  1.000000e+001  4.000000e+001
    endloop
  endfacet
  facet normal  0.000000e+000  0.000000e+000  1.000000e+000
    outer loop
      vertex  4.500000e+001  0.000000e+000  4.000000e+001
      vertex  3.200000e+001  1.000000e+001  4.000000e+001
      vertex  3.142705e+001  8.236644e+000  4.000000e+001
    endloop
  endfacet
  facet normal  0.000000e+000  0.000000e+000  9.999999e-001
    outer loop
      vertex  4.500000e+001  0.000000e+000  4.000000e+001
      vertex  3.142705e+001  8.236644e+000  4.000000e+001
      vertex  2.992705e+001  7.146831e+000  4.000000e+001
    endloop
  endfacet
  facet normal  0.000000e+000  0.000000e+000  1.000000e+000
    outer loop
      vertex  4.500000e+001  0.000000e+000  4.000000e+001
      vertex  2.992705e+001  7.146831e+000  4.000000e+001
      vertex  2.807295e+001  7.146831e+000  4.000000e+001
    endloop
  endfacet
  facet normal  0.000000e+000  0.000000e+000  1.000000e+000
    outer loop
      vertex  4.500000e+001  0.000000e+000  4.000000e+001
      vertex  2.807295e+001  7.146831e+000  4.000000e+001
      vertex -2.807295e+001  7.146831e+000  4.000000e+001
    endloop
  endfacet
  facet normal  0.000000e+000  0.000000e+000  9.999999e-001
    outer loop
      vertex -2.807295e+001  7.146831e+000  4.000000e+001
      vertex  2.807295e+001  7.146831e+000  4.000000e+001
      vertex  2.657295e+001  8.236644e+000  4.000000e+001
    endloop
  endfacet
  facet normal  0.000000e+000  0.000000e+000  9.999999e-001
    outer loop
      vertex -2.807295e+001  7.146831e+000  4.000000e+001
      vertex  2.657295e+001  8.236644e+000  4.000000e+001
      vertex  2.600000e+001  1.000000e+001  4.000000e+001
    endloop
  endfacet
  facet normal  0.000000e+000  0.000000e+000  1.000000e+000
    outer loop
      vertex -2.807295e+001  7.146831e+000  4.000000e+001
      vertex  2.600000e+001  1.000000e+001  4.000000e+001
      vertex -2.657295e+001  8.236644e+000  4.000000e+001
    endloop
  endfacet
  facet normal  -0.000000e+000  -0.000000e+000  1.000000e+000
    outer loop
      vertex -2.807295e+001  1.285317e+001  4.000000e+001
      vertex -2.657295e+001  1.176336e+001  4.000000e+001
      vertex  2.600000e+001  1.000000e+001  4.000000e+001
    endloop
  endfacet
  facet normal  0.000000e+000  -0.000000e+000  9.999999e-001
    outer loop
      vertex -2.807295e+001  1.285317e+001  4.000000e+001
      vertex  2.600000e+001  1.000000e+001  4.000000e+001
      vertex  2.657295e+001  1.176336e+001  4.000000e+001
    endloop
  endfacet
  facet normal  0.000000e+000  -0.000000e+000  9.999999e-001
    outer loop
      vertex -2.807295e+001  1.285317e+001  4.000000e+001
      vertex  2.657295e+001  1.176336e+001  4.000000e+001
      vertex  2.807295e+001  1.285317e+001  4.000000e+001
    endloop
  endfacet
  facet normal  0.000000e+000  0.000000e+000  1.000000e+000
    outer loop
      vertex  4.500000e+001  2.000000e+001  4.000000e+001
      vertex -2.807295e+001  1.285317e+001  4.000000e+001
      vertex  2.807295e+001  1.285317e+001  4.000000e+001
    endloop
  endfacet
  facet normal  0.000000e+000  0.000000e+000  1.000000e+000
    outer loop
      vertex  4.500000e+001  2.000000e+001  4.000000e+001
      vertex  2.807295e+001  1.285317e+001  4.000000e+001
      vertex  2.992705e+001  1.285317e+001  4.000000e+001
    endloop
  endfacet
  facet normal  -0.000000e+000  0.000000e+000  9.999999e-001
    outer loop
      vertex  4.500000e+001  2.000000e+001  4.000000e+001
      vertex  2.992705e+001  1.285317e+001  4.000000e+001
      vertex  3.142705e+001  1.176336e+001  4.000000e+001
    endloop
  endfacet
  facet normal  -0.000000e+000  0.000000e+000  1.000000e+000
    outer loop
      vertex  4.500000e+001  2.000000e+001  4.000000e+001
      vertex  3.142705e+001  1.176336e+001  4.000000e+001
      vertex  3.200000e+001  1.000000e+001  4.000000e+001
    endloop
  endfacet
  facet normal -5.877851e-001  8.090172e-001  0.000000e+000
    outer loop
      vertex  2.992705e+001  7.146831e+000  0.000000e+000
      vertex  3.142705e+001  8.236644e+000  4.000000e+001
      vertex  3.142705e+001  8.236644e+000  0.000000e+000
    endloop
  endfacet
  facet normal -9.510567e-001  3.090167e-001  0.000000e+000
    outer loop
      vertex  3.142705e+001  8.236644e+000  0.000000e+000
      vertex  3.142705e+001  8.236644e+000  4.000000e+001
      vertex  3.200000e+001  1.000000e+001  4.000000e+001
    endloop
  endfacet
  facet normal -9.510567e-001  3.090167e-001  0.000000e+000
    outer loop
      vertex  3.142705e+001  8.236644e+000  0.000000e+000
      vertex  3.200000e+001  1.000000e+001  4.000000e+001
      vertex  3.200000e+001  1.000000e+001  0.000000e+000
    endloop
  endfacet
  facet normal -5.877851e-001  8.090172e-001  0.000000e+000
    outer loop
      vertex  3.142705e+001  8.236644e+000  4.000000e+001
      vertex  2.992705e+001  7.146831e+000  0.000000e+000
      vertex  2.992705e+001  7.146831e+000  4.000000e+001
    endloop
  endfacet
  facet normal  0.000000e+000  1.000000e+000  0.000000e+000
    outer loop
      vertex  2.992705e+001  7.146831e+000  4.000000e+001
      vertex  2.992705e+001  7.146831e+000  0.000000e+000
      vertex  2.807295e+001  7.146831e+000  0.000000e+000
    endloop
  endfacet
  facet normal  0.000000e+000  1.000000e+000  0.000000e+000
    outer loop
      vertex  2.992705e+001  7.146831e+000  4.000000e+001
      vertex  2.807295e+001  7.146831e+000  0.000000e+000
      vertex  2.807295e+001  7.146831e+000  4.000000e+001
    endloop
  endfacet
  facet normal  5.877851e-001  8.090172e-001  0.000000e+000
    outer loop
      vertex  2.807295e+001  7.146831e+000  4.000000e+001
      vertex  2.807295e+001  7.146831e+000  0.000000e+000
      vertex  2.657295e+001  8.236644e+000  0.000000e+000
    endloop
  endfacet
  facet normal  5.877851e-001  8.090172e-001  -0.000000e+000
    outer loop
      vertex  2.807295e+001  7.146831e+000  4.000000e+001
      vertex  2.657295e+001  8.236644e+000  0.000000e+000
      vertex  2.657295e+001  8.236644e+000  4.000000e+001
    endloop
  endfacet
  facet normal  9.510567e-001  3.090167e-001  0.000000e+000
    outer loop
      vertex  2.657295e+001  8.236644e+000  4.000000e+001
      vertex  2.657295e+001  8.236644e+000  0.000000e+000
      vertex  2.600000e+001  1.000000e+001  0.000000e+000
    endloop
  endfacet
  facet normal  9.510567e-001  3.090167e-001  -0.000000e+000
    outer loop
      vertex  2.657295e+001  8.236644e+000  4.000000e+001
      vertex  2.600000e+001  1.000000e+001  0.000000e+000
      vertex  2.600000e+001  1.000000e+001  4.000000e+001
    endloop
  endfacet
  facet normal  5.877851e-001 -8.090172e-001  0.000000e+000
    outer loop
      vertex  2.807295e+001  1.285317e+001  0.000000e+000
      vertex  2.657295e+001  1.176336e+001  4.000000e+001
      vertex  2.657295e+001  1.176336e+001  0.000000e+000
    endloop
  endfacet
  facet normal  9.510567e-001 -3.090167e-001  0.000000e+000
    outer loop
      vertex  2.657295e+001  1.176336e+001  0.000000e+000
      vertex  2.657295e+001  1.176336e+001  4.000000e+001
      vertex  2.600000e+001  1.000000e+001  4.000000e+001
    endloop
  endfacet
  facet normal  9.510567e-001 -3.090167e-001  0.000000e+000
    outer loop
      vertex  2.657295e+001  1.176336e+001  0.000000e+000
      vertex  2.600000e+001  1.000000e+001  4.000000e+001
      vertex  2.600000e+001  1.000000e+001  0.000000e+000
    endloop
  endfacet
  facet normal  5.877851e-001 -8.090172e-001  0.000000e+000
    outer loop
      vertex  2.657295e+001  1.176336e+001  4.000000e+001
      vertex  2.807295e+001  1.285317e+001  0.000000e+000
      vertex  2.807295e+001  1.285317e+001  4.000000e+001
    endloop
  endfacet
  facet normal  0.000000e+000 -1.000000e+000  0.000000e+000
    outer loop
      vertex  2.807295e+001  1.285317e+001  4.000000e+001
      vertex  2.807295e+001  1.285317e+001  0.000000e+000
      vertex  2.992705e+001  1.285317e+001  0.000000e+000
    endloop
  endfacet
  facet normal  0.000000e+000 -1.000000e+000  0.000000e+000
    outer loop
      vertex  2.807295e+001  1.285317e+001  4.000000e+001
      vertex  2.992705e+001  1.285317e+001  0.000000e+000
      vertex  2.992705e+001  1.285317e+001  4.000000e+001
    endloop
  endfacet
  facet normal -5.877851e-001 -8.090172e-001  -0.000000e+000
    outer loop
      vertex  2.992705e+001  1.285317e+001  4.000000e+001
      vertex  2.992705e+001  1.285317e+001  0.000000e+000
      vertex  3.142705e+001  1.176336e+001  0.000000e+000
    endloop
  endfacet
  facet normal -5.877851e-001 -8.090172e-001  0.000000e+000
    outer loop
      vertex  2.992705e+001  1.285317e+001  4.000000e+001
      vertex  3.142705e+001  1.176336e+001  0.000000e+000
      vertex  3.142705e+001  1.176336e+001  4.000000e+001
    endloop
  endfacet
  facet normal -9.510567e-001 -3.090167e-001  -0.000000e+000
    outer loop
      vertex  3.142705e+001  1.176336e+001  4.000000e+001
      vertex  3.142705e+001  1.176336e+001  0.000000e+000
      vertex  3.200000e+001  1.000000e+001  0.000000e+000
    endloop
  endfacet
  facet normal -9.510567e-001 -3.090167e-001  0.000000e+000
    outer loop
      vertex  3.142705e+001  1.176336e+001  4.000000e+001
      vertex  3.200000e+001  1.000000e+001  0.000000e+000
      vertex  3.200000e+001  1.000000e+001  4.000000e+001
    endloop
  endfacet
  facet normal -5.877851e-001  8.090172e-001  0.000000e+000
    outer loop
      vertex -2.807295e+001  7.146831e+000  0.000000e+000
      vertex -2.657295e+001  8.236644e+000  4.000000e+001
      vertex -2.657295e+001  8.236644e+000  0.000000e+000
    endloop
  endfacet
  facet normal -9.510567e-001  3.090167e-001  0.000000e+000
    outer loop
      vertex -2.657295e+001  8.236644e+000  0.000000e+000
      vertex -2.657295e+001  8.236644e+000  4.000000e+001
      vertex -2.600000e+001  1.000000e+001  4.000000e+001
    endloop
  endfacet
  facet normal -9.510567e-001  3.090167e-001  0.000000e+000
    outer loop
      vertex -2.657295e+001  8.236644e+000  0.000000e+000
      vertex -2.600000e+001  1.000000e+001  4.000000e+001
      vertex -2.600000e+001  1.000000e+001  0.000000e+000
    endloop
  endfacet
  facet normal -5.877851e-001  8.090172e-001  0.000000e+000
    outer loop
      vertex -2.657295e+001  8.236644e+000  4.000000e+001
      vertex -2.807295e+001  7.146831e+000  0.000000e+000
      vertex -2.807295e+001  7.146831e+000  4.000000e+001
    endloop
  endfacet
  facet normal  0.000000e+000  1.000000e+000  0.000000e+000
    outer loop
      vertex -2.807295e+001  7.146831e+000  4.000000e+001
      vertex -2.807295e+001  7.146831e+000  0.000000e+000
      vertex -2.992705e+001  7.146831e+000  0.000000e+000
    endloop
  endfacet
  facet normal  0.000000e+000  1.000000e+000  0.000000e+000
    outer loop
      vertex -2.807295e+001  7.146831e+000  4.000000e+001
      vertex -2.992705e+001  7.146831e+000  0.000000e+000
      vertex -2.992705e+001  7.146831e+000  4.000000e+001
    endloop
  endfacet
  facet normal  5.877851e-001  8.090172e-001  0.000000e+000
    outer loop
      vertex -2.992705e+001  7.146831e+000  4.000000e+001
      vertex -2.992705e+001  7.146831e+000  0.000000e+000
      vertex -3.142705e+001  8.236644e+000  0.000000e+000
    endloop
  endfacet
  facet normal  5.877851e-001  8.090172e-001  -0.000000e+000
    outer loop
      vertex -2.992705e+001  7.146831e+000  4.000000e+001
      vertex -3.142705e+001  8.236644e+000  0.000000e+000
      vertex -3.142705e+001  8.236644e+000  4.000000e+001
    endloop
  endfacet
  facet normal  9.510567e-001  3.090167e-001  0.000000e+000
    outer loop
      vertex -3.142705e+001  8.236644e+000  4.000000e+001
      vertex -3.142705e+001  8.236644e+000  0.000000e+000
      vertex -3.200000e+001  1.000000e+001  0.000000e+000
    endloop
  endfacet
  facet normal  9.510567e-001  3.090167e-001  -0.000000e+000
    outer loop
      vertex -3.142705e+001  8.236644e+000  4.000000e+001
      vertex -3.200000e+001  1.000000e+001  0.000000e+000
      vertex -3.200000e+001  1.000000e+001  4.000000e+001
    endloop
  endfacet
  facet normal  5.877851e-001 -8.090172e-001  0.000000e+000
    outer loop
      vertex -2.992705e+001  1.285317e+001  0.000000e+000
      vertex -3.142705e+001  1.176336e+001  4.000000e+001
      vertex -3.142705e+001  1.176336e+001  0.000000e+000
    endloop
  endfacet
  facet normal  9.510567e-001 -3.090167e-001  0.000000e+000
    outer loop
      vertex -3.142705e+001  1.176336e+001  0.000000e+000
      vertex -3.142705e+001  1.176336e+001  4.000000e+001
      vertex -3.200000e+001  1.000000e+001  4.000000e+001
    endloop
  endfacet
  facet normal  9.510567e-001 -3.090167e-001  0.000000e+000
    outer loop
      vertex -3.142705e+001  1.176336e+001  0.000000e+000
      vertex -3.200000e+001  1.000000e+001  4.000000e+001
      vertex -3.200000e+001  1.000000e+001  0.000000e+000
    endloop
  endfacet
  facet normal  5.877851e-001 -8.090172e-001  0.000000e+000
    outer loop
      vertex -3.142705e+001  1.176336e+001  4.000000e+001
      vertex -2.992705e+001  1.285317e+001  0.000000e+000
      vertex -2.992705e+001  1.285317e+001  4.000000e+001
    endloop
  endfacet
  facet normal  0.000000e+000 -1.000000e+000  0.000000e+000
    outer loop
      vertex -2.992705e+001  1.285317e+001  4.000000e+001
      vertex -2.992705e+001  1.285317e+001  0.000000e+000
      vertex -2.807295e+001  1.285317e+001  0.000000e+000
    endloop
  endfacet
  facet normal  0.000000e+000 -1.000000e+000  0.000000e+000
    outer loop
      vertex -2.992705e+001  1.285317e+001  4.000000e+001
      vertex -2.807295e+001  1.285317e+001  0.000000e+000
      vertex -2.807295e+001  1.285317e+001  4.000000e+001
    endloop
  endfacet
  facet normal -5.877851e-001 -8.090172e-001  -0.000000e+000
    outer loop
      vertex -2.807295e+001  1.285317e+001  4.000000e+001
      vertex -2.807295e+001  1.285317e+001  0.000000e+000
      vertex -2.657295e+001  1.176336e+001  0.000000e+000
    endloop
  endfacet
  facet normal -5.877851e-001 -8.090172e-001  0.000000e+000
    outer loop
      vertex -2.807295e+001  1.285317e+001  4.000000e+001
      vertex -2.657295e+001  1.176336e+001  0.000000e+000
      vertex -2.657295e+001  1.176336e+001  4.000000e+001
    endloop
  endfacet
  facet normal -9.510567e-001 -3.090167e-001  -0.000000e+000
    outer loop
      vertex -2.657295e+001  1.176336e+001  4.000000e+001
      vertex -2.657295e+001  1.176336e+001  0.000000e+000
      vertex -2.600000e+001  1.000000e+001  0.000000e+000
    endloop
  endfacet
  facet normal -9.510567e-001 -3.090167e-001  0.000000e+000
    outer loop
      vertex -2.657295e+001  1.176336e+001  4.000000e+001
      vertex -2.600000e+001  1.000000e+001  0.000000e+000
      vertex -2.600000e+001  1.000000e+001  4.000000e+001
    endloop
  endfacet
  facet normal  1.000000e+000  -0.000000e+000  0.000000e+000
    outer loop
      vertex  4.500000e+001  4.000000e+001  6.700000e+001
      vertex  4.500000e+001  3.500000e+001  6.700000e+001
      vertex  4.500000e+001  4.000000e+001  0.000000e+000
    endloop
  endfacet
  facet normal  1.000000e+000  0.000000e+000  0.000000e+000
    outer loop
      vertex  4.500000e+001  4.000000e+001  0.000000e+000
      vertex  4.500000e+001  3.500000e+001  6.700000e+001
      vertex  4.500000e+001  3.500000e+001  1.000000e+001
    endloop
  endfacet
  facet normal  1.000000e+000  0.000000e+000  0.000000e+000
    outer loop
      vertex  4.500000e+001  4.000000e+001  0.000000e+000
      vertex  4.500000e+001  3.500000e+001  1.000000e+001
      vertex  4.500000e+001  0.000000e+000  0.000000e+000
    endloop
  endfacet
  facet normal  1.000000e+000  0.000000e+000  0.000000e+000
    outer loop
      vertex  4.500000e+001  0.000000e+000  0.000000e+000
      vertex  4.500000e+001  3.500000e+001  1.000000e+001
      vertex  4.500000e+001  2.500000e+001  1.000000e+001
    endloop
  endfacet
  facet normal  1.000000e+000  -0.000000e+000  0.000000e+000
    outer loop
      vertex  4.500000e+001  2.500000e+001  6.700000e+001
      vertex  4.500000e+001  2.000000e+001  6.700000e+001
      vertex  4.500000e+001  2.500000e+001  1.000000e+001
    endloop
  endfacet
  facet normal  1.000000e+000  0.000000e+000  0.000000e+000
    outer loop
      vertex  4.500000e+001  2.500000e+001  1.000000e+001
      vertex  4.500000e+001  2.000000e+001  6.700000e+001
      vertex  4.500000e+001  2.000000e+001  4.000000e+001
    endloop
  endfacet
  facet normal  1.000000e+000  0.000000e+000  0.000000e+000
    outer loop
      vertex  4.500000e+001  2.500000e+001  1.000000e+001
      vertex  4.500000e+001  2.000000e+001  4.000000e+001
      vertex  4.500000e+001  0.000000e+000  0.000000e+000
    endloop
  endfacet
  facet normal  1.000000e+000  0.000000e+000  0.000000e+000
    outer loop
      vertex  4.500000e+001  0.000000e+000  0.000000e+000
      vertex  4.500000e+001  2.000000e+001  4.000000e+001
      vertex  4.500000e+001  0.000000e+000  4.000000e+001
    endloop
  endfacet
  facet normal -1.000000e+000  0.000000e+000  0.000000e+000
    outer loop
      vertex -4.500000e+001  4.000000e+001  6.700000e+001
      vertex -4.500000e+001  4.000000e+001  0.000000e+000
      vertex -4.500000e+001  3.500000e+001  6.700000e+001
    endloop
  endfacet
  facet normal -1.000000e+000  0.000000e+000  0.000000e+000
    outer loop
      vertex -4.500000e+001  3.500000e+001  6.700000e+001
      vertex -4.500000e+001  4.000000e+001  0.000000e+000
      vertex -4.500000e+001  3.500000e+001  1.000000e+001
    endloop
  endfacet
  facet normal -1.000000e+000  0.000000e+000  0.000000e+000
    outer loop
      vertex -4.500000e+001  4.000000e+001  0.000000e+000
      vertex -4.500000e+001  0.000000e+000  0.000000e+000
      vertex -4.500000e+001  3.500000e+001  1.000000e+001
    endloop
  endfacet
  facet normal -1.000000e+000  -0.000000e+000  0.000000e+000
    outer loop
      vertex -4.500000e+001  3.500000e+001  1.000000e+001
      vertex -4.500000e+001  0.000000e+000  0.000000e+000
      vertex -4.500000e+001  2.500000e+001  1.000000e+001
    endloop
  endfacet
  facet normal -1.000000e+000  0.000000e+000  0.000000e+000
    outer loop
      vertex -4.500000e+001  2.500000e+001  6.700000e+001
      vertex -4.500000e+001  2.500000e+001  1.000000e+001
      vertex -4.500000e+001  2.000000e+001  6.700000e+001
    endloop
  endfacet
  facet normal -1.000000e+000  0.000000e+000  0.000000e+000
    outer loop
      vertex -4.500000e+001  2.000000e+001  6.700000e+001
      vertex -4.500000e+001  2.500000e+001  1.000000e+001
      vertex -4.500000e+001  2.000000e+001  4.000000e+001
    endloop
  endfacet
  facet normal -1.000000e+000  0.000000e+000  0.000000e+000
    outer loop
      vertex -4.500000e+001  2.500000e+001  1.000000e+001
      vertex -4.500000e+001  0.000000e+000  0.000000e+000
      vertex -4.500000e+001  2.000000e+001  4.000000e+001
    endloop
  endfacet
  facet normal -1.000000e+000  -0.000000e+000  0.000000e+000
    outer loop
      vertex -4.500000e+001  2.000000e+001  4.000000e+001
      vertex -4.500000e+001  0.000000e+000  0.000000e+000
      vertex -4.500000e+001  0.000000e+000  4.000000e+001
    endloop
  endfacet
  facet normal  0.000000e+000 -1.000000e+000  0.000000e+000
    outer loop
      vertex -4.500000e+001  0.000000e+000  0.000000e+000
      vertex  4.500000e+001  0.000000e+000  0.000000e+000
      vertex -4.500000e+001  0.000000e+000  4.000000e+001
    endloop
  endfacet
  facet normal  0.000000e+000 -1.000000e+000  0.000000e+000
    outer loop
      vertex -4.500000e+001  0.000000e+000  4.000000e+001
      vertex  4.500000e+001  0.000000e+000  0.000000e+000
      vertex  4.500000e+001  0.000000e+000  4.000000e+001
    endloop
  endfacet
  facet normal  0.000000e+000 -1.000000e+000  0.000000e+000
    outer loop
      vertex -4.500000e+001  2.000000e+001  4.000000e+001
      vertex  4.500000e+001  2.000000e+001  4.000000e+001
      vertex -4.500000e+001  2.000000e+001  6.700000e+001
    endloop
  endfacet
  facet normal  0.000000e+000 -1.000000e+000  0.000000e+000
    outer loop
      vertex -4.500000e+001  2.000000e+001  6.700000e+001
      vertex  4.500000e+001  2.000000e+001  4.000000e+001
      vertex  4.500000e+001  2.000000e+001  6.700000e+001
    endloop
  endfacet
  facet normal  0.000000e+000  0.000000e+000  1.000000e+000
    outer loop
      vertex -4.500000e+001  2.000000e+001  6.700000e+001
      vertex  4.500000e+001  2.000000e+001  6.700000e+001
      vertex -4.500000e+001  2.500000e+001  6.700000e+001
    endloop
  endfacet
  facet normal  -0.000000e+000  0.000000e+000  1.000000e+000
    outer loop
      vertex -4.500000e+001  2.500000e+001  6.700000e+001
      vertex  4.500000e+001  2.000000e+001  6.700000e+001
      vertex  4.500000e+001  2.500000e+001  6.700000e+001
    endloop
  endfacet
  facet normal  0.000000e+000  1.000000e+000  0.000000e+000
    outer loop
      vertex -4.500000e+001  2.500000e+001  6.700000e+001
      vertex  4.500000e+001  2.500000e+001  6.700000e+001
      vertex -4.500000e+001  2.500000e+001  1.000000e+001
    endloop
  endfacet
  facet normal  0.000000e+000  1.000000e+000  0.000000e+000
    outer loop
      vertex -4.500000e+001  2.500000e+001  1.000000e+001
      vertex  4.500000e+001  2.500000e+001  6.700000e+001
      vertex  4.500000e+001  2.500000e+001  1.000000e+001
    endloop
  endfacet
  facet normal  0.000000e+000  0.000000e+000  1.000000e+000
    outer loop
      vertex -4.500000e+001  2.500000e+001  1.000000e+001
      vertex  4.500000e+001  2.500000e+001  1.000000e+001
      vertex -4.500000e+001  3.500000e+001  1.000000e+001
    endloop
  endfacet
  facet normal  -0.000000e+000  0.000000e+000  1.000000e+000
    outer loop
      vertex -4.500000e+001  3.500000e+001  1.000000e+001
      vertex  4.500000e+001  2.500000e+001  1.000000e+001
      vertex  4.500000e+001  3.500000e+001  1.000000e+001
    endloop
  endfacet
  facet normal  0.000000e+000 -1.000000e+000  0.000000e+000
    outer loop
      vertex -4.500000e+001  3.500000e+001  1.000000e+001
      vertex  4.500000e+001  3.500000e+001  1.000000e+001
      vertex -4.500000e+001  3.500000e+001  6.700000e+001
    endloop
  endfacet
  facet normal  0.000000e+000 -1.000000e+000  0.000000e+000
    outer loop
      vertex -4.500000e+001  3.500000e+001  6.700000e+001
      vertex  4.500000e+001  3.500000e+001  1.000000e+001
      vertex  4.500000e+001  3.500000e+001  6.700000e+001
    endloop
  endfacet
  facet normal  0.000000e+000  0.000000e+000  1.000000e+000
    outer loop
      vertex -4.500000e+001  3.500000e+001  6.700000e+001
      vertex  4.500000e+001  3.500000e+001  6.700000e+001
      vertex -4.500000e+001  4.000000e+001  6.700000e+001
    endloop
  endfacet
  facet normal  -0.000000e+000  0.000000e+000  1.000000e+000
    outer loop
      vertex -4.500000e+001  4.000000e+001  6.700000e+001
      vertex  4.500000e+001  3.500000e+001  6.700000e+001
      vertex  4.500000e+001  4.000000e+001  6.700000e+001
    endloop
  endfacet
  facet normal  0.000000e+000  1.000000e+000  0.000000e+000
    outer loop
      vertex -4.500000e+001  4.000000e+001  6.700000e+001
      vertex  4.500000e+001  4.000000e+001  6.700000e+001
      vertex -4.500000e+001  4.000000e+001  0.000000e+000
    endloop
  endfacet
  facet normal  0.000000e+000  1.000000e+000  0.000000e+000
    outer loop
      vertex -4.500000e+001  4.000000e+001  0.000000e+000
      vertex  4.500000e+001  4.000000e+001  6.700000e+001
      vertex  4.500000e+001  4.000000e+001  0.000000e+000
    endloop
  endfacet
endsolid CATIA STL
