solid CATIA STL
  facet normal  -0.000000e+000  0.000000e+000 -1.000000e+000
    outer loop
      vertex -2.657295e+001  1.763356e+000 -1.421085e-014
      vertex  2.600000e+001  3.673940e-016 -1.421085e-014
      vertex -2.600000e+001  0.000000e+000 -1.421085e-014
    endloop
  endfacet
  facet normal  0.000000e+000  0.000000e+000 -1.000000e+000
    outer loop
      vertex  2.600000e+001  3.673940e-016 -1.421085e-014
      vertex -2.657295e+001 -1.763356e+000 -1.421085e-014
      vertex -2.600000e+001  0.000000e+000 -1.421085e-014
    endloop
  endfacet
  facet normal -8.745575e-016 -2.841607e-016 -9.999999e-001
    outer loop
      vertex -4.500000e+001 -1.000000e+001  0.000000e+000
      vertex -3.200000e+001  3.673940e-016 -1.421085e-014
      vertex -3.142705e+001 -1.763356e+000 -1.421085e-014
    endloop
  endfacet
  facet normal -5.704944e-016 -7.852182e-016 -1.000000e+000
    outer loop
      vertex -4.500000e+001 -1.000000e+001  0.000000e+000
      vertex -3.142705e+001 -1.763356e+000 -1.421085e-014
      vertex -2.992705e+001 -2.853169e+000 -1.421085e-014
    endloop
  endfacet
  facet normal  0.000000e+000 -1.988414e-015 -1.000000e+000
    outer loop
      vertex -4.500000e+001 -1.000000e+001  0.000000e+000
      vertex -2.992705e+001 -2.853169e+000 -1.421085e-014
      vertex -2.807295e+001 -2.853169e+000 -1.421085e-014
    endloop
  endfacet
  facet normal  0.000000e+000 -1.988413e-015 -1.000000e+000
    outer loop
      vertex -4.500000e+001 -1.000000e+001  0.000000e+000
      vertex -2.807295e+001 -2.853169e+000 -1.421085e-014
      vertex  4.500000e+001 -1.000000e+001  0.000000e+000
    endloop
  endfacet
  facet normal  0.000000e+000  2.485517e-015 -1.000000e+000
    outer loop
      vertex -4.500000e+001  1.000000e+001  3.552714e-015
      vertex  4.500000e+001  1.000000e+001  3.552714e-015
      vertex -2.807295e+001  2.853169e+000 -1.421085e-014
    endloop
  endfacet
  facet normal  0.000000e+000  2.485517e-015 -1.000000e+000
    outer loop
      vertex -4.500000e+001  1.000000e+001  3.552714e-015
      vertex -2.807295e+001  2.853169e+000 -1.421085e-014
      vertex -2.992705e+001  2.853169e+000 -1.421085e-014
    endloop
  endfacet
  facet normal -7.131180e-016  9.815228e-016 -1.000000e+000
    outer loop
      vertex -4.500000e+001  1.000000e+001  3.552714e-015
      vertex -2.992705e+001  2.853169e+000 -1.421085e-014
      vertex -3.142705e+001  1.763356e+000 -1.421085e-014
    endloop
  endfacet
  facet normal -1.093197e-015  3.552009e-016 -1.000000e+000
    outer loop
      vertex -4.500000e+001  1.000000e+001  3.552714e-015
      vertex -3.142705e+001  1.763356e+000 -1.421085e-014
      vertex -3.200000e+001  3.673940e-016 -1.421085e-014
    endloop
  endfacet
  facet normal -1.229786e-015  1.776357e-016 -1.000000e+000
    outer loop
      vertex -4.500000e+001  1.000000e+001  3.552714e-015
      vertex -3.200000e+001  3.673940e-016 -1.421085e-014
      vertex -4.500000e+001 -1.000000e+001  0.000000e+000
    endloop
  endfacet
  facet normal  1.229786e-015  1.776357e-016 -1.000000e+000
    outer loop
      vertex  4.500000e+001  1.000000e+001  3.552714e-015
      vertex  4.500000e+001 -1.000000e+001  0.000000e+000
      vertex  3.200000e+001  0.000000e+000 -1.421085e-014
    endloop
  endfacet
  facet normal  1.093197e-015  3.552009e-016 -9.999999e-001
    outer loop
      vertex  4.500000e+001  1.000000e+001  3.552714e-015
      vertex  3.200000e+001  0.000000e+000 -1.421085e-014
      vertex  3.142705e+001  1.763356e+000 -1.421085e-014
    endloop
  endfacet
  facet normal  7.131180e-016  9.815227e-016 -1.000000e+000
    outer loop
      vertex  4.500000e+001  1.000000e+001  3.552714e-015
      vertex  3.142705e+001  1.763356e+000 -1.421085e-014
      vertex  2.992705e+001  2.853169e+000 -1.421085e-014
    endloop
  endfacet
  facet normal  0.000000e+000  2.485517e-015 -1.000000e+000
    outer loop
      vertex  4.500000e+001  1.000000e+001  3.552714e-015
      vertex  2.992705e+001  2.853169e+000 -1.421085e-014
      vertex  2.807295e+001  2.853169e+000 -1.421085e-014
    endloop
  endfacet
  facet normal  0.000000e+000  2.485517e-015 -1.000000e+000
    outer loop
      vertex  4.500000e+001  1.000000e+001  3.552714e-015
      vertex  2.807295e+001  2.853169e+000 -1.421085e-014
      vertex -2.807295e+001  2.853169e+000 -1.421085e-014
    endloop
  endfacet
  facet normal  -0.000000e+000  0.000000e+000 -9.999999e-001
    outer loop
      vertex -2.807295e+001  2.853169e+000 -1.421085e-014
      vertex  2.807295e+001  2.853169e+000 -1.421085e-014
      vertex  2.657295e+001  1.763356e+000 -1.421085e-014
    endloop
  endfacet
  facet normal  -0.000000e+000  0.000000e+000 -1.000000e+000
    outer loop
      vertex -2.807295e+001  2.853169e+000 -1.421085e-014
      vertex  2.657295e+001  1.763356e+000 -1.421085e-014
      vertex  2.600000e+001  3.673940e-016 -1.421085e-014
    endloop
  endfacet
  facet normal  0.000000e+000  0.000000e+000 -1.000000e+000
    outer loop
      vertex -2.807295e+001  2.853169e+000 -1.421085e-014
      vertex  2.600000e+001  3.673940e-016 -1.421085e-014
      vertex -2.657295e+001  1.763356e+000 -1.421085e-014
    endloop
  endfacet
  facet normal  0.000000e+000  -0.000000e+000 -1.000000e+000
    outer loop
      vertex -2.807295e+001 -2.853169e+000 -1.421085e-014
      vertex -2.657295e+001 -1.763356e+000 -1.421085e-014
      vertex  2.600000e+001  3.673940e-016 -1.421085e-014
    endloop
  endfacet
  facet normal  0.000000e+000  -0.000000e+000 -1.000000e+000
    outer loop
      vertex -2.807295e+001 -2.853169e+000 -1.421085e-014
      vertex  2.600000e+001  3.673940e-016 -1.421085e-014
      vertex  2.657295e+001 -1.763356e+000 -1.421085e-014
    endloop
  endfacet
  facet normal  0.000000e+000  -0.000000e+000 -9.999999e-001
    outer loop
      vertex -2.807295e+001 -2.853169e+000 -1.421085e-014
      vertex  2.657295e+001 -1.763356e+000 -1.421085e-014
      vertex  2.807295e+001 -2.853169e+000 -1.421085e-014
    endloop
  endfacet
  facet normal  0.000000e+000 -1.988414e-015 -1.000000e+000
    outer loop
      vertex  4.500000e+001 -1.000000e+001  0.000000e+000
      vertex -2.807295e+001 -2.853169e+000 -1.421085e-014
      vertex  2.807295e+001 -2.853169e+000 -1.421085e-014
    endloop
  endfacet
  facet normal  0.000000e+000 -1.988414e-015 -1.000000e+000
    outer loop
      vertex  4.500000e+001 -1.000000e+001  0.000000e+000
      vertex  2.807295e+001 -2.853169e+000 -1.421085e-014
      vertex  2.992705e+001 -2.853169e+000 -1.421085e-014
    endloop
  endfacet
  facet normal  5.704944e-016 -7.852183e-016 -1.000000e+000
    outer loop
      vertex  4.500000e+001 -1.000000e+001  0.000000e+000
      vertex  2.992705e+001 -2.853169e+000 -1.421085e-014
      vertex  3.142705e+001 -1.763356e+000 -1.421085e-014
    endloop
  endfacet
  facet normal  8.745575e-016 -2.841607e-016 -1.000000e+000
    outer loop
      vertex  4.500000e+001 -1.000000e+001  0.000000e+000
      vertex  3.142705e+001 -1.763356e+000 -1.421085e-014
      vertex  3.200000e+001  0.000000e+000 -1.421085e-014
    endloop
  endfacet
  facet normal  0.000000e+000  0.000000e+000  1.000000e+000
    outer loop
      vertex -2.657295e+001 -1.763356e+000  4.000000e+001
      vertex  2.600000e+001  3.673940e-016  4.000000e+001
      vertex -2.600000e+001  0.000000e+000  4.000000e+001
    endloop
  endfacet
  facet normal  0.000000e+000  0.000000e+000  1.000000e+000
    outer loop
      vertex  2.600000e+001  3.673940e-016  4.000000e+001
      vertex -2.657295e+001  1.763356e+000  4.000000e+001
      vertex -2.600000e+001  0.000000e+000  4.000000e+001
    endloop
  endfacet
  facet normal  0.000000e+000  -0.000000e+000  9.999999e-001
    outer loop
      vertex -4.500000e+001  1.000000e+001  4.000000e+001
      vertex -3.200000e+001  3.673940e-016  4.000000e+001
      vertex -3.142705e+001  1.763356e+000  4.000000e+001
    endloop
  endfacet
  facet normal  0.000000e+000  -0.000000e+000  1.000000e+000
    outer loop
      vertex -4.500000e+001  1.000000e+001  4.000000e+001
      vertex -3.142705e+001  1.763356e+000  4.000000e+001
      vertex -2.992705e+001  2.853169e+000  4.000000e+001
    endloop
  endfacet
  facet normal  0.000000e+000  -0.000000e+000  1.000000e+000
    outer loop
      vertex -4.500000e+001  1.000000e+001  4.000000e+001
      vertex -2.992705e+001  2.853169e+000  4.000000e+001
      vertex -2.807295e+001  2.853169e+000  4.000000e+001
    endloop
  endfacet
  facet normal  0.000000e+000  -0.000000e+000  1.000000e+000
    outer loop
      vertex -4.500000e+001  1.000000e+001  4.000000e+001
      vertex -2.807295e+001  2.853169e+000  4.000000e+001
      vertex  4.500000e+001  1.000000e+001  4.000000e+001
    endloop
  endfacet
  facet normal  0.000000e+000  0.000000e+000  1.000000e+000
    outer loop
      vertex -4.500000e+001 -1.000000e+001  4.000000e+001
      vertex  4.500000e+001 -1.000000e+001  4.000000e+001
      vertex -2.807295e+001 -2.853169e+000  4.000000e+001
    endloop
  endfacet
  facet normal  0.000000e+000  0.000000e+000  1.000000e+000
    outer loop
      vertex -4.500000e+001 -1.000000e+001  4.000000e+001
      vertex -2.807295e+001 -2.853169e+000  4.000000e+001
      vertex -2.992705e+001 -2.853169e+000  4.000000e+001
    endloop
  endfacet
  facet normal  0.000000e+000  0.000000e+000  1.000000e+000
    outer loop
      vertex -4.500000e+001 -1.000000e+001  4.000000e+001
      vertex -2.992705e+001 -2.853169e+000  4.000000e+001
      vertex -3.142705e+001 -1.763356e+000  4.000000e+001
    endloop
  endfacet
  facet normal  0.000000e+000  0.000000e+000  1.000000e+000
    outer loop
      vertex -4.500000e+001 -1.000000e+001  4.000000e+001
      vertex -3.142705e+001 -1.763356e+000  4.000000e+001
      vertex -3.200000e+001  3.673940e-016  4.000000e+001
    endloop
  endfacet
  facet normal  0.000000e+000  0.000000e+000  1.000000e+000
    outer loop
      vertex -4.500000e+001 -1.000000e+001  4.000000e+001
      vertex -3.200000e+001  3.673940e-016  4.000000e+001
      vertex -4.500000e+001  1.000000e+001  4.000000e+001
    endloop
  endfacet
  facet normal  0.000000e+000  0.000000e+000  1.000000e+000
    outer loop
      vertex  4.500000e+001 -1.000000e+001  4.000000e+001
      vertex  4.500000e+001  1.000000e+001  4.000000e+001
      vertex  3.200000e+001  0.000000e+000  4.000000e+001
    endloop
  endfacet
  facet normal  0.000000e+000  0.000000e+000  9.999999e-001
    outer loop
      vertex  4.500000e+001 -1.000000e+001  4.000000e+001
      vertex  3.200000e+001  0.000000e+000  4.000000e+001
      vertex  3.142705e+001 -1.763356e+000  4.000000e+001
    endloop
  endfacet
  facet normal  0.000000e+000  0.000000e+000  1.000000e+000
    outer loop
      vertex  4.500000e+001 -1.000000e+001  4.000000e+001
      vertex  3.142705e+001 -1.763356e+000  4.000000e+001
      vertex  2.992705e+001 -2.853169e+000  4.000000e+001
    endloop
  endfacet
  facet normal  0.000000e+000  0.000000e+000  1.000000e+000
    outer loop
      vertex  4.500000e+001 -1.000000e+001  4.000000e+001
      vertex  2.992705e+001 -2.853169e+000  4.000000e+001
      vertex  2.807295e+001 -2.853169e+000  4.000000e+001
    endloop
  endfacet
  facet normal  0.000000e+000  0.000000e+000  1.000000e+000
    outer loop
      vertex  4.500000e+001 -1.000000e+001  4.000000e+001
      vertex  2.807295e+001 -2.853169e+000  4.000000e+001
      vertex -2.807295e+001 -2.853169e+000  4.000000e+001
    endloop
  endfacet
  facet normal  0.000000e+000  0.000000e+000  9.999999e-001
    outer loop
      vertex -2.807295e+001 -2.853169e+000  4.000000e+001
      vertex  2.807295e+001 -2.853169e+000  4.000000e+001
      vertex  2.657295e+001 -1.763356e+000  4.000000e+001
    endloop
  endfacet
  facet normal  0.000000e+000  0.000000e+000  1.000000e+000
    outer loop
      vertex -2.807295e+001 -2.853169e+000  4.000000e+001
      vertex  2.657295e+001 -1.763356e+000  4.000000e+001
      vertex  2.600000e+001  3.673940e-016  4.000000e+001
    endloop
  endfacet
  facet normal  0.000000e+000  0.000000e+000  1.000000e+000
    outer loop
      vertex -2.807295e+001 -2.853169e+000  4.000000e+001
      vertex  2.600000e+001  3.673940e-016  4.000000e+001
      vertex -2.657295e+001 -1.763356e+000  4.000000e+001
    endloop
  endfacet
  facet normal  -0.000000e+000  -0.000000e+000  1.000000e+000
    outer loop
      vertex -2.807295e+001  2.853169e+000  4.000000e+001
      vertex -2.657295e+001  1.763356e+000  4.000000e+001
      vertex  2.600000e+001  3.673940e-016  4.000000e+001
    endloop
  endfacet
  facet normal  0.000000e+000  -0.000000e+000  1.000000e+000
    outer loop
      vertex -2.807295e+001  2.853169e+000  4.000000e+001
      vertex  2.600000e+001  3.673940e-016  4.000000e+001
      vertex  2.657295e+001  1.763356e+000  4.000000e+001
    endloop
  endfacet
  facet normal  0.000000e+000  -0.000000e+000  9.999999e-001
    outer loop
      vertex -2.807295e+001  2.853169e+000  4.000000e+001
      vertex  2.657295e+001  1.763356e+000  4.000000e+001
      vertex  2.807295e+001  2.853169e+000  4.000000e+001
    endloop
  endfacet
  facet normal  0.000000e+000  0.000000e+000  1.000000e+000
    outer loop
      vertex  4.500000e+001  1.000000e+001  4.000000e+001
      vertex -2.807295e+001  2.853169e+000  4.000000e+001
      vertex  2.807295e+001  2.853169e+000  4.000000e+001
    endloop
  endfacet
  facet normal  0.000000e+000  0.000000e+000  1.000000e+000
    outer loop
      vertex  4.500000e+001  1.000000e+001  4.000000e+001
      vertex  2.807295e+001  2.853169e+000  4.000000e+001
      vertex  2.992705e+001  2.853169e+000  4.000000e+001
    endloop
  endfacet
  facet normal  -0.000000e+000  0.000000e+000  1.000000e+000
    outer loop
      vertex  4.500000e+001  1.000000e+001  4.000000e+001
      vertex  2.992705e+001  2.853169e+000  4.000000e+001
      vertex  3.142705e+001  1.763356e+000  4.000000e+001
    endloop
  endfacet
  facet normal  -0.000000e+000  0.000000e+000  1.000000e+000
    outer loop
      vertex  4.500000e+001  1.000000e+001  4.000000e+001
      vertex  3.142705e+001  1.763356e+000  4.000000e+001
      vertex  3.200000e+001  0.000000e+000  4.000000e+001
    endloop
  endfacet
  facet normal -5.877852e-001  8.090170e-001  0.000000e+000
    outer loop
      vertex  2.992705e+001 -2.853169e+000 -1.421085e-014
      vertex  3.142705e+001 -1.763356e+000  4.000000e+001
      vertex  3.142705e+001 -1.763356e+000 -1.421085e-014
    endloop
  endfacet
  facet normal -9.510566e-001  3.090167e-001  0.000000e+000
    outer loop
      vertex  3.142705e+001 -1.763356e+000 -1.421085e-014
      vertex  3.142705e+001 -1.763356e+000  4.000000e+001
      vertex  3.200000e+001  0.000000e+000  4.000000e+001
    endloop
  endfacet
  facet normal -9.510566e-001  3.090167e-001  0.000000e+000
    outer loop
      vertex  3.142705e+001 -1.763356e+000 -1.421085e-014
      vertex  3.200000e+001  0.000000e+000  4.000000e+001
      vertex  3.200000e+001  0.000000e+000 -1.421085e-014
    endloop
  endfacet
  facet normal -5.877852e-001  8.090170e-001  0.000000e+000
    outer loop
      vertex  3.142705e+001 -1.763356e+000  4.000000e+001
      vertex  2.992705e+001 -2.853169e+000 -1.421085e-014
      vertex  2.992705e+001 -2.853169e+000  4.000000e+001
    endloop
  endfacet
  facet normal  0.000000e+000  1.000000e+000  0.000000e+000
    outer loop
      vertex  2.992705e+001 -2.853169e+000  4.000000e+001
      vertex  2.992705e+001 -2.853169e+000 -1.421085e-014
      vertex  2.807295e+001 -2.853169e+000 -1.421085e-014
    endloop
  endfacet
  facet normal  0.000000e+000  1.000000e+000  0.000000e+000
    outer loop
      vertex  2.992705e+001 -2.853169e+000  4.000000e+001
      vertex  2.807295e+001 -2.853169e+000 -1.421085e-014
      vertex  2.807295e+001 -2.853169e+000  4.000000e+001
    endloop
  endfacet
  facet normal  5.877852e-001  8.090170e-001  0.000000e+000
    outer loop
      vertex  2.807295e+001 -2.853169e+000  4.000000e+001
      vertex  2.807295e+001 -2.853169e+000 -1.421085e-014
      vertex  2.657295e+001 -1.763356e+000 -1.421085e-014
    endloop
  endfacet
  facet normal  5.877852e-001  8.090170e-001  -0.000000e+000
    outer loop
      vertex  2.807295e+001 -2.853169e+000  4.000000e+001
      vertex  2.657295e+001 -1.763356e+000 -1.421085e-014
      vertex  2.657295e+001 -1.763356e+000  4.000000e+001
    endloop
  endfacet
  facet normal  9.510566e-001  3.090167e-001  0.000000e+000
    outer loop
      vertex  2.657295e+001 -1.763356e+000  4.000000e+001
      vertex  2.657295e+001 -1.763356e+000 -1.421085e-014
      vertex  2.600000e+001  3.673940e-016 -1.421085e-014
    endloop
  endfacet
  facet normal  9.510566e-001  3.090167e-001  -0.000000e+000
    outer loop
      vertex  2.657295e+001 -1.763356e+000  4.000000e+001
      vertex  2.600000e+001  3.673940e-016 -1.421085e-014
      vertex  2.600000e+001  3.673940e-016  4.000000e+001
    endloop
  endfacet
  facet normal  5.877852e-001 -8.090170e-001  0.000000e+000
    outer loop
      vertex  2.807295e+001  2.853169e+000 -1.421085e-014
      vertex  2.657295e+001  1.763356e+000  4.000000e+001
      vertex  2.657295e+001  1.763356e+000 -1.421085e-014
    endloop
  endfacet
  facet normal  9.510566e-001 -3.090167e-001  0.000000e+000
    outer loop
      vertex  2.657295e+001  1.763356e+000 -1.421085e-014
      vertex  2.657295e+001  1.763356e+000  4.000000e+001
      vertex  2.600000e+001  3.673940e-016  4.000000e+001
    endloop
  endfacet
  facet normal  9.510566e-001 -3.090167e-001  0.000000e+000
    outer loop
      vertex  2.657295e+001  1.763356e+000 -1.421085e-014
      vertex  2.600000e+001  3.673940e-016  4.000000e+001
      vertex  2.600000e+001  3.673940e-016 -1.421085e-014
    endloop
  endfacet
  facet normal  5.877852e-001 -8.090170e-001  0.000000e+000
    outer loop
      vertex  2.657295e+001  1.763356e+000  4.000000e+001
      vertex  2.807295e+001  2.853169e+000 -1.421085e-014
      vertex  2.807295e+001  2.853169e+000  4.000000e+001
    endloop
  endfacet
  facet normal  0.000000e+000 -1.000000e+000  0.000000e+000
    outer loop
      vertex  2.807295e+001  2.853169e+000  4.000000e+001
      vertex  2.807295e+001  2.853169e+000 -1.421085e-014
      vertex  2.992705e+001  2.853169e+000 -1.421085e-014
    endloop
  endfacet
  facet normal  0.000000e+000 -1.000000e+000  0.000000e+000
    outer loop
      vertex  2.807295e+001  2.853169e+000  4.000000e+001
      vertex  2.992705e+001  2.853169e+000 -1.421085e-014
      vertex  2.992705e+001  2.853169e+000  4.000000e+001
    endloop
  endfacet
  facet normal -5.877852e-001 -8.090170e-001  -0.000000e+000
    outer loop
      vertex  2.992705e+001  2.853169e+000  4.000000e+001
      vertex  2.992705e+001  2.853169e+000 -1.421085e-014
      vertex  3.142705e+001  1.763356e+000 -1.421085e-014
    endloop
  endfacet
  facet normal -5.877852e-001 -8.090170e-001  0.000000e+000
    outer loop
      vertex  2.992705e+001  2.853169e+000  4.000000e+001
      vertex  3.142705e+001  1.763356e+000 -1.421085e-014
      vertex  3.142705e+001  1.763356e+000  4.000000e+001
    endloop
  endfacet
  facet normal -9.510566e-001 -3.090167e-001  -0.000000e+000
    outer loop
      vertex  3.142705e+001  1.763356e+000  4.000000e+001
      vertex  3.142705e+001  1.763356e+000 -1.421085e-014
      vertex  3.200000e+001  0.000000e+000 -1.421085e-014
    endloop
  endfacet
  facet normal -9.510566e-001 -3.090167e-001  0.000000e+000
    outer loop
      vertex  3.142705e+001  1.763356e+000  4.000000e+001
      vertex  3.200000e+001  0.000000e+000 -1.421085e-014
      vertex  3.200000e+001  0.000000e+000  4.000000e+001
    endloop
  endfacet
  facet normal -5.877852e-001  8.090170e-001  0.000000e+000
    outer loop
      vertex -2.807295e+001 -2.853169e+000 -1.421085e-014
      vertex -2.657295e+001 -1.763356e+000  4.000000e+001
      vertex -2.657295e+001 -1.763356e+000 -1.421085e-014
    endloop
  endfacet
  facet normal -9.510566e-001  3.090167e-001  0.000000e+000
    outer loop
      vertex -2.657295e+001 -1.763356e+000 -1.421085e-014
      vertex -2.657295e+001 -1.763356e+000  4.000000e+001
      vertex -2.600000e+001  0.000000e+000  4.000000e+001
    endloop
  endfacet
  facet normal -9.510566e-001  3.090167e-001  0.000000e+000
    outer loop
      vertex -2.657295e+001 -1.763356e+000 -1.421085e-014
      vertex -2.600000e+001  0.000000e+000  4.000000e+001
      vertex -2.600000e+001  0.000000e+000 -1.421085e-014
    endloop
  endfacet
  facet normal -5.877852e-001  8.090170e-001  0.000000e+000
    outer loop
      vertex -2.657295e+001 -1.763356e+000  4.000000e+001
      vertex -2.807295e+001 -2.853169e+000 -1.421085e-014
      vertex -2.807295e+001 -2.853169e+000  4.000000e+001
    endloop
  endfacet
  facet normal  0.000000e+000  1.000000e+000  0.000000e+000
    outer loop
      vertex -2.807295e+001 -2.853169e+000  4.000000e+001
      vertex -2.807295e+001 -2.853169e+000 -1.421085e-014
      vertex -2.992705e+001 -2.853169e+000 -1.421085e-014
    endloop
  endfacet
  facet normal  0.000000e+000  1.000000e+000  0.000000e+000
    outer loop
      vertex -2.807295e+001 -2.853169e+000  4.000000e+001
      vertex -2.992705e+001 -2.853169e+000 -1.421085e-014
      vertex -2.992705e+001 -2.853169e+000  4.000000e+001
    endloop
  endfacet
  facet normal  5.877852e-001  8.090170e-001  0.000000e+000
    outer loop
      vertex -2.992705e+001 -2.853169e+000  4.000000e+001
      vertex -2.992705e+001 -2.853169e+000 -1.421085e-014
      vertex -3.142705e+001 -1.763356e+000 -1.421085e-014
    endloop
  endfacet
  facet normal  5.877852e-001  8.090170e-001  -0.000000e+000
    outer loop
      vertex -2.992705e+001 -2.853169e+000  4.000000e+001
      vertex -3.142705e+001 -1.763356e+000 -1.421085e-014
      vertex -3.142705e+001 -1.763356e+000  4.000000e+001
    endloop
  endfacet
  facet normal  9.510566e-001  3.090167e-001  0.000000e+000
    outer loop
      vertex -3.142705e+001 -1.763356e+000  4.000000e+001
      vertex -3.142705e+001 -1.763356e+000 -1.421085e-014
      vertex -3.200000e+001  3.673940e-016 -1.421085e-014
    endloop
  endfacet
  facet normal  9.510566e-001  3.090167e-001  -0.000000e+000
    outer loop
      vertex -3.142705e+001 -1.763356e+000  4.000000e+001
      vertex -3.200000e+001  3.673940e-016 -1.421085e-014
      vertex -3.200000e+001  3.673940e-016  4.000000e+001
    endloop
  endfacet
  facet normal  5.877852e-001 -8.090170e-001  0.000000e+000
    outer loop
      vertex -2.992705e+001  2.853169e+000 -1.421085e-014
      vertex -3.142705e+001  1.763356e+000  4.000000e+001
      vertex -3.142705e+001  1.763356e+000 -1.421085e-014
    endloop
  endfacet
  facet normal  9.510566e-001 -3.090167e-001  0.000000e+000
    outer loop
      vertex -3.142705e+001  1.763356e+000 -1.421085e-014
      vertex -3.142705e+001  1.763356e+000  4.000000e+001
      vertex -3.200000e+001  3.673940e-016  4.000000e+001
    endloop
  endfacet
  facet normal  9.510566e-001 -3.090167e-001  0.000000e+000
    outer loop
      vertex -3.142705e+001  1.763356e+000 -1.421085e-014
      vertex -3.200000e+001  3.673940e-016  4.000000e+001
      vertex -3.200000e+001  3.673940e-016 -1.421085e-014
    endloop
  endfacet
  facet normal  5.877852e-001 -8.090170e-001  0.000000e+000
    outer loop
      vertex -3.142705e+001  1.763356e+000  4.000000e+001
      vertex -2.992705e+001  2.853169e+000 -1.421085e-014
      vertex -2.992705e+001  2.853169e+000  4.000000e+001
    endloop
  endfacet
  facet normal  0.000000e+000 -1.000000e+000  0.000000e+000
    outer loop
      vertex -2.992705e+001  2.853169e+000  4.000000e+001
      vertex -2.992705e+001  2.853169e+000 -1.421085e-014
      vertex -2.807295e+001  2.853169e+000 -1.421085e-014
    endloop
  endfacet
  facet normal  0.000000e+000 -1.000000e+000  0.000000e+000
    outer loop
      vertex -2.992705e+001  2.853169e+000  4.000000e+001
      vertex -2.807295e+001  2.853169e+000 -1.421085e-014
      vertex -2.807295e+001  2.853169e+000  4.000000e+001
    endloop
  endfacet
  facet normal -5.877852e-001 -8.090170e-001  -0.000000e+000
    outer loop
      vertex -2.807295e+001  2.853169e+000  4.000000e+001
      vertex -2.807295e+001  2.853169e+000 -1.421085e-014
      vertex -2.657295e+001  1.763356e+000 -1.421085e-014
    endloop
  endfacet
  facet normal -5.877852e-001 -8.090170e-001  0.000000e+000
    outer loop
      vertex -2.807295e+001  2.853169e+000  4.000000e+001
      vertex -2.657295e+001  1.763356e+000 -1.421085e-014
      vertex -2.657295e+001  1.763356e+000  4.000000e+001
    endloop
  endfacet
  facet normal -9.510566e-001 -3.090167e-001  -0.000000e+000
    outer loop
      vertex -2.657295e+001  1.763356e+000  4.000000e+001
      vertex -2.657295e+001  1.763356e+000 -1.421085e-014
      vertex -2.600000e+001  0.000000e+000 -1.421085e-014
    endloop
  endfacet
  facet normal -9.510566e-001 -3.090167e-001  0.000000e+000
    outer loop
      vertex -2.657295e+001  1.763356e+000  4.000000e+001
      vertex -2.600000e+001  0.000000e+000 -1.421085e-014
      vertex -2.600000e+001  0.000000e+000  4.000000e+001
    endloop
  endfacet
  facet normal  1.000000e+000  0.000000e+000  0.000000e+000
    outer loop
      vertex  4.500000e+001 -1.000000e+001  0.000000e+000
      vertex  4.500000e+001  1.000000e+001  3.552714e-015
      vertex  4.500000e+001 -1.000000e+001  4.000000e+001
    endloop
  endfacet
  facet normal  1.000000e+000  -0.000000e+000  0.000000e+000
    outer loop
      vertex  4.500000e+001 -1.000000e+001  4.000000e+001
      vertex  4.500000e+001  1.000000e+001  3.552714e-015
      vertex  4.500000e+001  1.000000e+001  4.000000e+001
    endloop
  endfacet
  facet normal -1.000000e+000  0.000000e+000  0.000000e+000
    outer loop
      vertex -4.500000e+001 -1.000000e+001  0.000000e+000
      vertex -4.500000e+001 -1.000000e+001  4.000000e+001
      vertex -4.500000e+001  1.000000e+001  3.552714e-015
    endloop
  endfacet
  facet normal -1.000000e+000  0.000000e+000  0.000000e+000
    outer loop
      vertex -4.500000e+001  1.000000e+001  3.552714e-015
      vertex -4.500000e+001 -1.000000e+001  4.000000e+001
      vertex -4.500000e+001  1.000000e+001  4.000000e+001
    endloop
  endfacet
  facet normal  0.000000e+000  1.000000e+000  0.000000e+000
    outer loop
      vertex -4.500000e+001  1.000000e+001  3.552714e-015
      vertex -4.500000e+001  1.000000e+001  4.000000e+001
      vertex  4.500000e+001  1.000000e+001  3.552714e-015
    endloop
  endfacet
  facet normal  0.000000e+000  1.000000e+000  -0.000000e+000
    outer loop
      vertex  4.500000e+001  1.000000e+001  3.552714e-015
      vertex -4.500000e+001  1.000000e+001  4.000000e+001
      vertex  4.500000e+001  1.000000e+001  4.000000e+001
    endloop
  endfacet
  facet normal  0.000000e+000 -1.000000e+000  0.000000e+000
    outer loop
      vertex -4.500000e+001 -1.000000e+001  4.000000e+001
      vertex -4.500000e+001 -1.000000e+001  0.000000e+000
      vertex  4.500000e+001 -1.000000e+001  4.000000e+001
    endloop
  endfacet
  facet normal  0.000000e+000 -1.000000e+000  -0.000000e+000
    outer loop
      vertex  4.500000e+001 -1.000000e+001  4.000000e+001
      vertex -4.500000e+001 -1.000000e+001  0.000000e+000
      vertex  4.500000e+001 -1.000000e+001  0.000000e+000
    endloop
  endfacet
endsolid CATIA STL
