solid CATIA STL
  facet normal  1.000000e+000  0.000000e+000  0.000000e+000
    outer loop
      vertex  0.000000e+000  3.100000e+001 -1.800000e+001
      vertex  0.000000e+000  3.100000e+001  1.800000e+001
      vertex  0.000000e+000  2.500000e+001  1.800000e+001
    endloop
  endfacet
  facet normal  1.000000e+000  0.000000e+000  0.000000e+000
    outer loop
      vertex  0.000000e+000  3.100000e+001 -1.800000e+001
      vertex  0.000000e+000  2.500000e+001  1.800000e+001
      vertex  0.000000e+000  2.500000e+001  8.000000e+000
    endloop
  endfacet
  facet normal  1.000000e+000  0.000000e+000  0.000000e+000
    outer loop
      vertex  0.000000e+000  3.100000e+001 -1.800000e+001
      vertex  0.000000e+000  2.500000e+001  8.000000e+000
      vertex  0.000000e+000  2.500000e+001 -8.000000e+000
    endloop
  endfacet
  facet normal  1.000000e+000  0.000000e+000  0.000000e+000
    outer loop
      vertex  0.000000e+000  3.100000e+001 -1.800000e+001
      vertex  0.000000e+000  2.500000e+001 -8.000000e+000
      vertex  0.000000e+000  2.500000e+001 -1.800000e+001
    endloop
  endfacet
  facet normal  1.000000e+000  1.776357e-017  -0.000000e+000
    outer loop
      vertex  8.881784e-016 -2.500000e+001  8.000000e+000
      vertex  8.881784e-016 -2.500000e+001 -8.000000e+000
      vertex  0.000000e+000  2.500000e+001  8.000000e+000
    endloop
  endfacet
  facet normal  1.000000e+000  1.776357e-017  0.000000e+000
    outer loop
      vertex  0.000000e+000  2.500000e+001  8.000000e+000
      vertex  8.881784e-016 -2.500000e+001 -8.000000e+000
      vertex  0.000000e+000  2.500000e+001 -8.000000e+000
    endloop
  endfacet
  facet normal  0.000000e+000 -1.000000e+000  0.000000e+000
    outer loop
      vertex -7.000000e+001  2.500000e+001  1.800000e+001
      vertex  0.000000e+000  2.500000e+001  8.000000e+000
      vertex  0.000000e+000  2.500000e+001  1.800000e+001
    endloop
  endfacet
  facet normal  0.000000e+000 -1.000000e+000  0.000000e+000
    outer loop
      vertex  0.000000e+000  2.500000e+001  8.000000e+000
      vertex -7.000000e+001  2.500000e+001  1.800000e+001
      vertex -1.100000e+001  2.500000e+001  7.340000e+000
    endloop
  endfacet
  facet normal  -0.000000e+000 -1.000000e+000  0.000000e+000
    outer loop
      vertex -1.100000e+001  2.500000e+001  7.340000e+000
      vertex -7.000000e+001  2.500000e+001  1.800000e+001
      vertex -7.000000e+001  2.500000e+001 -1.800000e+001
    endloop
  endfacet
  facet normal  0.000000e+000 -1.000000e+000  0.000000e+000
    outer loop
      vertex -1.100000e+001  2.500000e+001  7.340000e+000
      vertex -7.000000e+001  2.500000e+001 -1.800000e+001
      vertex -1.100000e+001  2.500000e+001 -7.340000e+000
    endloop
  endfacet
  facet normal  0.000000e+000 -1.000000e+000  -0.000000e+000
    outer loop
      vertex -1.100000e+001  2.500000e+001 -7.340000e+000
      vertex -7.000000e+001  2.500000e+001 -1.800000e+001
      vertex  0.000000e+000  2.500000e+001 -1.800000e+001
    endloop
  endfacet
  facet normal  0.000000e+000 -9.999999e-001  0.000000e+000
    outer loop
      vertex -1.100000e+001  2.500000e+001 -7.340000e+000
      vertex  0.000000e+000  2.500000e+001 -1.800000e+001
      vertex  0.000000e+000  2.500000e+001 -8.000000e+000
    endloop
  endfacet
  facet normal -5.989227e-002 -1.063900e-018  9.982048e-001
    outer loop
      vertex  8.881784e-016 -2.500000e+001  8.000000e+000
      vertex  0.000000e+000  2.500000e+001  8.000000e+000
      vertex -1.100000e+001 -2.500000e+001  7.340000e+000
    endloop
  endfacet
  facet normal -5.989227e-002  0.000000e+000  9.982048e-001
    outer loop
      vertex -1.100000e+001 -2.500000e+001  7.340000e+000
      vertex  0.000000e+000  2.500000e+001  8.000000e+000
      vertex -1.100000e+001  2.500000e+001  7.340000e+000
    endloop
  endfacet
  facet normal -1.000000e+000  -0.000000e+000  0.000000e+000
    outer loop
      vertex -1.100000e+001 -2.500000e+001  7.340000e+000
      vertex -1.100000e+001  2.500000e+001  7.340000e+000
      vertex -1.100000e+001 -2.500000e+001 -7.340000e+000
    endloop
  endfacet
  facet normal -1.000000e+000  0.000000e+000  0.000000e+000
    outer loop
      vertex -1.100000e+001 -2.500000e+001 -7.340000e+000
      vertex -1.100000e+001  2.500000e+001  7.340000e+000
      vertex -1.100000e+001  2.500000e+001 -7.340000e+000
    endloop
  endfacet
  facet normal -5.989227e-002  -0.000000e+000 -9.982048e-001
    outer loop
      vertex -1.100000e+001 -2.500000e+001 -7.340000e+000
      vertex -1.100000e+001  2.500000e+001 -7.340000e+000
      vertex  8.881784e-016 -2.500000e+001 -8.000000e+000
    endloop
  endfacet
  facet normal -5.989227e-002 -1.063900e-018 -9.982048e-001
    outer loop
      vertex  8.881784e-016 -2.500000e+001 -8.000000e+000
      vertex -1.100000e+001  2.500000e+001 -7.340000e+000
      vertex  0.000000e+000  2.500000e+001 -8.000000e+000
    endloop
  endfacet
  facet normal  0.000000e+000  1.000000e+000  0.000000e+000
    outer loop
      vertex  0.000000e+000  3.100000e+001 -1.800000e+001
      vertex -7.000000e+001  3.100000e+001 -1.800000e+001
      vertex  0.000000e+000  3.100000e+001  1.800000e+001
    endloop
  endfacet
  facet normal  0.000000e+000  1.000000e+000  0.000000e+000
    outer loop
      vertex  0.000000e+000  3.100000e+001  1.800000e+001
      vertex -7.000000e+001  3.100000e+001 -1.800000e+001
      vertex -7.000000e+001  3.100000e+001  1.800000e+001
    endloop
  endfacet
  facet normal  -0.000000e+000  0.000000e+000  1.000000e+000
    outer loop
      vertex  0.000000e+000  3.100000e+001  1.800000e+001
      vertex -7.000000e+001  3.100000e+001  1.800000e+001
      vertex  0.000000e+000  2.500000e+001  1.800000e+001
    endloop
  endfacet
  facet normal  0.000000e+000  0.000000e+000  1.000000e+000
    outer loop
      vertex  0.000000e+000  2.500000e+001  1.800000e+001
      vertex -7.000000e+001  3.100000e+001  1.800000e+001
      vertex -7.000000e+001  2.500000e+001  1.800000e+001
    endloop
  endfacet
  facet normal -1.000000e+000  0.000000e+000  0.000000e+000
    outer loop
      vertex -7.000000e+001  3.100000e+001 -1.800000e+001
      vertex -7.000000e+001  2.500000e+001 -1.800000e+001
      vertex -7.000000e+001  3.100000e+001  1.800000e+001
    endloop
  endfacet
  facet normal -1.000000e+000  -0.000000e+000  0.000000e+000
    outer loop
      vertex -7.000000e+001  3.100000e+001  1.800000e+001
      vertex -7.000000e+001  2.500000e+001 -1.800000e+001
      vertex -7.000000e+001  2.500000e+001  1.800000e+001
    endloop
  endfacet
  facet normal  -0.000000e+000  0.000000e+000 -1.000000e+000
    outer loop
      vertex -7.000000e+001  3.100000e+001 -1.800000e+001
      vertex  0.000000e+000  3.100000e+001 -1.800000e+001
      vertex -7.000000e+001  2.500000e+001 -1.800000e+001
    endloop
  endfacet
  facet normal  0.000000e+000  0.000000e+000 -1.000000e+000
    outer loop
      vertex -7.000000e+001  2.500000e+001 -1.800000e+001
      vertex  0.000000e+000  3.100000e+001 -1.800000e+001
      vertex  0.000000e+000  2.500000e+001 -1.800000e+001
    endloop
  endfacet
  facet normal  0.000000e+000 -1.000000e+000  -0.000000e+000
    outer loop
      vertex  8.881784e-016 -2.500000e+001 -8.000000e+000
      vertex  8.881784e-016 -2.500000e+001  8.000000e+000
      vertex -1.100000e+001 -2.500000e+001 -7.340000e+000
    endloop
  endfacet
  facet normal  0.000000e+000 -1.000000e+000  0.000000e+000
    outer loop
      vertex -1.100000e+001 -2.500000e+001 -7.340000e+000
      vertex  8.881784e-016 -2.500000e+001  8.000000e+000
      vertex -1.100000e+001 -2.500000e+001  7.340000e+000
    endloop
  endfacet
endsolid CATIA STL
